<?xml version="1.0" encoding="utf-8"?>
<svg viewBox="0 0 500 500" xmlns="http://www.w3.org/2000/svg">
  <defs/>
  <g id="SVGRepo_bgCarrier" transform="matrix(1, 0, 0, 1, -550.674744, 100.650482)"/>
  <g id="SVGRepo_tracerCarrier" transform="matrix(1, 0, 0, 1, -550.674744, 100.650482)"/>
  <g id="SVGRepo_bgCarrier_00000041275377184260257720000003440362174240932501_" transform="matrix(1, 0, 0, 1, -550.674744, 100.650482)"/>
  <g id="SVGRepo_tracerCarrier_00000111189071256508163870000010709788238872484777_" transform="matrix(1, 0, 0, 1, -550.674744, 100.650482)"/>
  <g id="SVGRepo_bgCarrier_00000114767185521792217960000011092113019168932769_" transform="matrix(1, 0, 0, 1, -550.674744, 100.650482)"/>
  <g id="SVGRepo_tracerCarrier_00000094590214493859357310000016012373950150154645_" transform="matrix(1, 0, 0, 1, -550.674744, 100.650482)"/>
  <path class="st0" d="M 474.77 99.853 L 408.07 99.853 M 408.07 99.853 L 341.37 99.853 M 408.07 99.853 L 408.07 33.153 M 408.07 99.853 L 408.07 166.553" style="fill: none; stroke: rgb(86, 106, 127); stroke-linecap: round; stroke-miterlimit: 133.333; stroke-width: 29px;"/>
  <g id="g-1" stroke-width="0" transform="matrix(1, 0, 0, 1, 42.859211, 200.424454)"/>
  <g id="g-2" stroke-linecap="round" stroke-linejoin="round" transform="matrix(1, 0, 0, 1, 42.859211, 200.424454)"/>
  <g id="g-3" stroke-width="0" transform="matrix(1, 0, 0, 1, 86.300964, 287.823212)"/>
  <g id="g-4" stroke-linecap="round" stroke-linejoin="round" transform="matrix(1, 0, 0, 1, 86.300964, 287.823212)"/>
  <g id="g-5" stroke-width="0" transform="matrix(11.120481, 0, 0, 11.120481, 30.230259, 118.187141)" style=""/>
  <g id="g-6" stroke-linecap="round" stroke-linejoin="round" transform="matrix(11.120481, 0, 0, 11.120481, 30.230259, 118.187141)" style=""/>
  <g id="SVGRepo_iconCarrier" transform="matrix(11.120481, 0, 0, 11.120481, 30.230259, 118.187141)" style="">
    <circle class="st0" cx="22" cy="19" r="4" style="fill: none; stroke: rgb(86, 106, 127); stroke-linecap: round; stroke-linejoin: round; stroke-miterlimit: 10; stroke-width: 2px;"/>
    <polyline class="st0" points="25,22 25,31 22,30 19,31 19,22 " style="fill: none; stroke: rgb(86, 106, 127); stroke-linecap: round; stroke-linejoin: round; stroke-miterlimit: 10; stroke-width: 2px;"/>
    <line class="st0" x1="7" y1="11" x2="18" y2="11" style="fill: none; stroke: rgb(86, 106, 127); stroke-linecap: round; stroke-linejoin: round; stroke-miterlimit: 10; stroke-width: 2px;"/>
    <line class="st0" x1="7" y1="15" x2="12" y2="15" style="fill: none; stroke: rgb(86, 106, 127); stroke-linecap: round; stroke-linejoin: round; stroke-miterlimit: 10; stroke-width: 2px;"/>
    <polyline class="st0" points="19,26 3,26 3,6 29,6 29,26 25,26 " style="fill: none; stroke: rgb(86, 106, 127); stroke-linecap: round; stroke-linejoin: round; stroke-miterlimit: 10; stroke-width: 2px;"/>
  </g>
</svg>