<?xml version="1.0" encoding="utf-8"?>
<svg viewBox="0 0 500 500" xmlns="http://www.w3.org/2000/svg">
  <defs/>
  <g id="SVGRepo_bgCarrier" transform="matrix(1, 0, 0, 1, -550.674744, 100.650482)"/>
  <g id="SVGRepo_tracerCarrier" transform="matrix(1, 0, 0, 1, -550.674744, 100.650482)"/>
  <g id="SVGRepo_bgCarrier_00000041275377184260257720000003440362174240932501_" transform="matrix(1, 0, 0, 1, -550.674744, 100.650482)"/>
  <g id="SVGRepo_tracerCarrier_00000111189071256508163870000010709788238872484777_" transform="matrix(1, 0, 0, 1, -550.674744, 100.650482)"/>
  <g id="SVGRepo_bgCarrier_00000114767185521792217960000011092113019168932769_" transform="matrix(1, 0, 0, 1, -550.674744, 100.650482)"/>
  <g id="SVGRepo_tracerCarrier_00000094590214493859357310000016012373950150154645_" transform="matrix(1, 0, 0, 1, -550.674744, 100.650482)"/>
  <path class="st0" d="M 474.77 99.853 L 408.07 99.853 M 408.07 99.853 L 341.37 99.853 M 408.07 99.853 L 408.07 33.153 M 408.07 99.853 L 408.07 166.553" style="fill: none; stroke: rgb(86, 106, 127); stroke-linecap: round; stroke-miterlimit: 133.333; stroke-width: 29px;"/>
  <g id="g-1" stroke-width="0" transform="matrix(1, 0, 0, 1, 42.859211, 200.424454)"/>
  <g id="g-2" stroke-linecap="round" stroke-linejoin="round" transform="matrix(1, 0, 0, 1, 42.859211, 200.424454)"/>
  <g id="g-3" stroke-width="0" transform="matrix(1, 0, 0, 1, 86.300964, 287.823212)"/>
  <g id="g-4" stroke-linecap="round" stroke-linejoin="round" transform="matrix(1, 0, 0, 1, 86.300964, 287.823212)"/>
  <g id="g-5" stroke-width="0" transform="matrix(11.120481, 0, 0, 11.120481, 30.230259, 118.187141)" style=""/>
  <g id="g-6" stroke-linecap="round" stroke-linejoin="round" transform="matrix(11.120481, 0, 0, 11.120481, 30.230259, 118.187141)" style=""/>
  <g id="g-7" stroke-width="0" transform="matrix(1, 0, 0, 1, 99.829529, 266.06958)"/>
  <g id="g-8" stroke-linecap="round" stroke-linejoin="round" transform="matrix(1, 0, 0, 1, 99.829529, 266.06958)"/>
  <g id="SVGRepo_iconCarrier" transform="matrix(19.272177, 0, 0, 19.272177, 46.934292, 155.163361)" style="">
    <path fill-rule="evenodd" d="M11.5 1a.5.5 0 0 1 0-1h4a.5.5 0 0 1 .5.5v4a.5.5 0 0 1-1 0V1.707l-3.45 3.45A4 4 0 0 1 8.5 10.97V13H10a.5.5 0 0 1 0 1H8.5v1.5a.5.5 0 0 1-1 0V14H6a.5.5 0 0 1 0-1h1.5v-2.03a4 4 0 1 1 3.471-6.648L14.293 1H11.5zm-.997 4.346a3 3 0 1 0-5.006 3.309 3 3 0 0 0 5.006-3.31z" style="fill: rgb(86, 106, 127);"/>
  </g>
</svg>