<?xml version="1.0" encoding="utf-8"?>
<svg viewBox="0 0 500 500" xmlns="http://www.w3.org/2000/svg">
  <defs/>
  <g id="SVGRepo_iconCarrier" data-name="SVGRepo iconCarrier" transform="matrix(0.725048, 0, 0, 0.725048, -72.069054, -45.994236)" style="">
    <path class="cls-1" d="M610.8,138.7c4-11.3,14.8-19.4,27.5-19.4s23.5,8.1,27.5,19.4" style="fill: none; stroke: rgb(86, 106, 127); stroke-linecap: round; stroke-miterlimit: 133.3; stroke-width: 23px;"/>
    <path class="cls-1" d="M720.7,158.1h-165" style="fill: none; stroke: rgb(86, 106, 127); stroke-linecap: round; stroke-miterlimit: 133.3; stroke-width: 23px;"/>
    <path class="cls-1" d="M700.1,249.3c-1.7,25.8-2.6,38.7-11,46.5-8.4,7.9-21.3,7.9-47.1,7.9h-7.5c-25.8,0-38.7,0-47.1-7.9-8.4-7.9-9.3-20.7-11-46.5l-4.5-67M704.6,182.4l-1.9,29.1" style="fill: none; stroke: rgb(86, 106, 127); stroke-linecap: round; stroke-miterlimit: 133.3; stroke-width: 23px;"/>
    <path class="cls-1" d="M614,206.6l4.9,48.5" style="fill: none; stroke: rgb(86, 106, 127); stroke-linecap: round; stroke-miterlimit: 133.3; stroke-width: 23px;"/>
    <path class="cls-1" d="M662.5,206.6l-4.9,48.5" style="fill: none; stroke: rgb(86, 106, 127); stroke-linecap: round; stroke-miterlimit: 133.3; stroke-width: 23px;"/>
  </g>
  <g id="SVGRepo_bgCarrier" transform="matrix(1, 0, 0, 1, -682.74054, 126.681519)"/>
  <g id="SVGRepo_tracerCarrier" transform="matrix(1, 0, 0, 1, -682.74054, 126.681519)"/>
  <g id="SVGRepo_bgCarrier_00000041275377184260257720000003440362174240932501_" transform="matrix(1, 0, 0, 1, -682.74054, 126.681519)"/>
  <g id="SVGRepo_tracerCarrier_00000111189071256508163870000010709788238872484777_" transform="matrix(1, 0, 0, 1, -682.74054, 126.681519)"/>
  <g id="SVGRepo_bgCarrier_00000114767185521792217960000011092113019168932769_" transform="matrix(1, 0, 0, 1, -682.74054, 126.681519)"/>
  <g id="SVGRepo_tracerCarrier_00000094590214493859357310000016012373950150154645_" transform="matrix(1, 0, 0, 1, -682.74054, 126.681519)"/>
  <g id="g-1" stroke-width="0" transform="matrix(1, 0, 0, 1, -89.206581, 226.45549)"/>
  <g id="g-2" stroke-linecap="round" stroke-linejoin="round" transform="matrix(1, 0, 0, 1, -89.206581, 226.45549)"/>
  <g id="g-3" stroke-width="0" transform="matrix(1, 0, 0, 1, -45.764832, 313.854248)"/>
  <g id="g-4" stroke-linecap="round" stroke-linejoin="round" transform="matrix(1, 0, 0, 1, -45.764832, 313.854248)"/>
  <g id="g-5" stroke-width="0" transform="matrix(11.120481, 0, 0, 11.120481, -101.835533, 144.218185)" style=""/>
  <g id="g-6" stroke-linecap="round" stroke-linejoin="round" transform="matrix(11.120481, 0, 0, 11.120481, -101.835533, 144.218185)" style=""/>
  <g id="g-7" stroke-width="0" transform="matrix(1, 0, 0, 1, -32.236263, 292.100616)"/>
  <g id="g-8" stroke-linecap="round" stroke-linejoin="round" transform="matrix(1, 0, 0, 1, -32.236263, 292.100616)"/>
  <g id="g-9" stroke-width="0" transform="matrix(0.706319, 0, 0, 0.706319, -93.535019, 147.038193)" style=""/>
  <g id="g-10" stroke-linecap="round" stroke-linejoin="round" transform="matrix(0.706319, 0, 0, 0.706319, -93.535019, 147.038193)" style=""/>
  <g id="g-11" stroke-width="0" transform="matrix(1, 0, 0, 1, -28.774542, 212.251099)"/>
  <g id="g-12" stroke-linecap="round" stroke-linejoin="round" transform="matrix(1, 0, 0, 1, -28.774542, 212.251099)"/>
  <g id="g-13" stroke-width="0" transform="matrix(12.38594, 0, 0, 12.38594, -34.747684, 174.975159)" style=""/>
  <g id="g-14" stroke-linecap="round" stroke-linejoin="round" transform="matrix(12.38594, 0, 0, 12.38594, -34.747684, 174.975159)" style=""/>
  <g id="g-15" stroke-width="0" transform="matrix(9.909401, 0, 0, 9.909401, -26.954153, 246.231674)" style=""/>
  <g id="g-16" stroke-linecap="round" stroke-linejoin="round" transform="matrix(9.909401, 0, 0, 9.909401, -26.954153, 246.231674)" style=""/>
  <g id="g-17" transform="matrix(13.062118, 0, 0, 13.062118, -23.836302, 177.731003)" style=""/>
  <g id="g-18" stroke-width="0" transform="matrix(12.915578, 0, 0, 12.915578, 74.122993, 168.76178)" style=""/>
  <g id="g-19" stroke-linecap="round" stroke-linejoin="round" transform="matrix(12.915578, 0, 0, 12.915578, 74.122993, 168.76178)" style=""/>
  <g id="g-20" transform="matrix(12.915578, 0, 0, 12.915578, 74.122993, 168.76178)" style="">
    <path d="M21 13.1623C21 12.1187 21 9.5969 20.7169 9.20407C20.4337 8.81124 19.9387 8.64624 18.9487 8.31623L18 8M21 16.829C21 18.1199 21 18.7653 20.6603 19.18C20.5449 19.3208 20.4048 19.4394 20.247 19.5301C19.7821 19.797 19.1455 19.6909 17.8721 19.4787C16.6157 19.2693 15.9875 19.1646 15.3648 19.2167C15.1463 19.235 14.9292 19.2676 14.715 19.3144C14.1046 19.4477 13.5299 19.735 12.3806 20.3097C10.8809 21.0596 10.131 21.4345 9.33284 21.5501C9.09242 21.5849 8.8498 21.6021 8.60688 21.6016C7.80035 21.6001 7.01186 21.3373 5.43488 20.8116L5.05132 20.6838C4.06129 20.3538 3.56627 20.1888 3.28314 19.7959C3 19.4031 3 18.8813 3 17.8377V17M3 12.908C3 11.2491 3 10.4197 3.48841 9.97358C3.57388 9.89552 3.66809 9.82762 3.76917 9.77122C4.28426 9.48384 4.96572 9.66128 6.22311 10.075" stroke="#566a7f" stroke-width="1.5" stroke-linecap="round" style="fill: rgb(255, 255, 255);"/>
    <path d="M17.25 11.2513C17.7356 10.0935 18 8.86093 18 7.70031C18 4.55211 15.3137 2 12 2C8.68629 2 6 4.55211 6 7.70031C6 10.8238 7.91499 14.4687 10.9028 15.7721C11.5993 16.076 12.4007 16.076 13.0972 15.7721C14.0514 15.3558 14.8963 14.7007 15.6042 13.9" stroke="#566a7f" stroke-width="1.5" stroke-linecap="round" style="fill: rgb(255, 255, 255);"/>
    <circle cx="12" cy="8" r="2" stroke="#566a7f" stroke-width="1.5" style="fill: rgb(255, 255, 255);"/>
  </g>
</svg>