<?xml version="1.0" encoding="utf-8"?>
<svg viewBox="0 0 500 500" xmlns="http://www.w3.org/2000/svg">
  <defs/>
  <g id="SVGRepo_iconCarrier" data-name="SVGRepo iconCarrier" transform="matrix(0.725048, 0, 0, 0.725048, -72.069054, -45.994236)" style="">
    <path class="cls-1" d="M610.8,138.7c4-11.3,14.8-19.4,27.5-19.4s23.5,8.1,27.5,19.4" style="fill: none; stroke: rgb(86, 106, 127); stroke-linecap: round; stroke-miterlimit: 133.3; stroke-width: 23px;"/>
    <path class="cls-1" d="M720.7,158.1h-165" style="fill: none; stroke: rgb(86, 106, 127); stroke-linecap: round; stroke-miterlimit: 133.3; stroke-width: 23px;"/>
    <path class="cls-1" d="M700.1,249.3c-1.7,25.8-2.6,38.7-11,46.5-8.4,7.9-21.3,7.9-47.1,7.9h-7.5c-25.8,0-38.7,0-47.1-7.9-8.4-7.9-9.3-20.7-11-46.5l-4.5-67M704.6,182.4l-1.9,29.1" style="fill: none; stroke: rgb(86, 106, 127); stroke-linecap: round; stroke-miterlimit: 133.3; stroke-width: 23px;"/>
    <path class="cls-1" d="M614,206.6l4.9,48.5" style="fill: none; stroke: rgb(86, 106, 127); stroke-linecap: round; stroke-miterlimit: 133.3; stroke-width: 23px;"/>
    <path class="cls-1" d="M662.5,206.6l-4.9,48.5" style="fill: none; stroke: rgb(86, 106, 127); stroke-linecap: round; stroke-miterlimit: 133.3; stroke-width: 23px;"/>
  </g>
  <g id="SVGRepo_bgCarrier" transform="matrix(1, 0, 0, 1, -682.74054, 126.681519)"/>
  <g id="SVGRepo_tracerCarrier" transform="matrix(1, 0, 0, 1, -682.74054, 126.681519)"/>
  <g id="SVGRepo_bgCarrier_00000041275377184260257720000003440362174240932501_" transform="matrix(1, 0, 0, 1, -682.74054, 126.681519)"/>
  <g id="SVGRepo_tracerCarrier_00000111189071256508163870000010709788238872484777_" transform="matrix(1, 0, 0, 1, -682.74054, 126.681519)"/>
  <g id="SVGRepo_bgCarrier_00000114767185521792217960000011092113019168932769_" transform="matrix(1, 0, 0, 1, -682.74054, 126.681519)"/>
  <g id="SVGRepo_tracerCarrier_00000094590214493859357310000016012373950150154645_" transform="matrix(1, 0, 0, 1, -682.74054, 126.681519)"/>
  <g id="g-1" stroke-width="0" transform="matrix(1, 0, 0, 1, -89.206581, 226.45549)"/>
  <g id="g-2" stroke-linecap="round" stroke-linejoin="round" transform="matrix(1, 0, 0, 1, -89.206581, 226.45549)"/>
  <g id="g-3" stroke-width="0" transform="matrix(1, 0, 0, 1, -45.764832, 313.854248)"/>
  <g id="g-4" stroke-linecap="round" stroke-linejoin="round" transform="matrix(1, 0, 0, 1, -45.764832, 313.854248)"/>
  <g id="g-5" stroke-width="0" transform="matrix(11.120481, 0, 0, 11.120481, -101.835533, 144.218185)" style=""/>
  <g id="g-6" stroke-linecap="round" stroke-linejoin="round" transform="matrix(11.120481, 0, 0, 11.120481, -101.835533, 144.218185)" style=""/>
  <g id="g-7" stroke-width="0" transform="matrix(1, 0, 0, 1, -32.236263, 292.100616)"/>
  <g id="g-8" stroke-linecap="round" stroke-linejoin="round" transform="matrix(1, 0, 0, 1, -32.236263, 292.100616)"/>
  <g id="g-9" stroke-width="0" transform="matrix(0.706319, 0, 0, 0.706319, -93.535019, 147.038193)" style=""/>
  <g id="g-10" stroke-linecap="round" stroke-linejoin="round" transform="matrix(0.706319, 0, 0, 0.706319, -93.535019, 147.038193)" style=""/>
  <g id="g-11" stroke-width="0" transform="matrix(1, 0, 0, 1, -28.774542, 212.251099)"/>
  <g id="g-12" stroke-linecap="round" stroke-linejoin="round" transform="matrix(1, 0, 0, 1, -28.774542, 212.251099)"/>
  <g id="g-13" stroke-width="0" transform="matrix(12.38594, 0, 0, 12.38594, -34.747684, 174.975159)" style=""/>
  <g id="g-14" stroke-linecap="round" stroke-linejoin="round" transform="matrix(12.38594, 0, 0, 12.38594, -34.747684, 174.975159)" style=""/>
  <g id="g-15" stroke-width="0" transform="matrix(9.909401, 0, 0, 9.909401, -26.954153, 246.231674)" style=""/>
  <g id="g-16" stroke-linecap="round" stroke-linejoin="round" transform="matrix(9.909401, 0, 0, 9.909401, -26.954153, 246.231674)" style=""/>
  <g id="g-17" transform="matrix(13.062118, 0, 0, 13.062118, -23.836302, 177.731003)" style=""/>
  <g id="g-18" stroke-width="0" transform="matrix(12.915578, 0, 0, 12.915578, 74.122993, 168.76178)" style=""/>
  <g id="g-19" stroke-linecap="round" stroke-linejoin="round" transform="matrix(12.915578, 0, 0, 12.915578, 74.122993, 168.76178)" style=""/>
  <g id="g-21" stroke-width="0" transform="matrix(1, 0, 0, 1, 95.262573, 153.363129)"/>
  <g id="g-22" stroke-linecap="round" stroke-linejoin="round" transform="matrix(1, 0, 0, 1, 95.262573, 153.363129)"/>
  <g id="g-20" stroke-width="0" transform="matrix(1, 0, 0, 1, 139.955307, 174.592178)"/>
  <g id="g-23" stroke-linecap="round" stroke-linejoin="round" transform="matrix(1, 0, 0, 1, 139.955307, 174.592178)"/>
  <g id="g-25" stroke-width="0" transform="matrix(1, 0, 0, 1, 102.848602, 141.162003)"/>
  <g id="g-26" stroke-linecap="round" stroke-linejoin="round" transform="matrix(1, 0, 0, 1, 102.848602, 141.162003)"/>
  <g id="g-24" stroke-width="0" transform="matrix(1, 0, 0, 1, 108.581009, 180.08989)"/>
  <g id="g-28" stroke-linecap="round" stroke-linejoin="round" transform="matrix(1, 0, 0, 1, 108.581009, 180.08989)"/>
  <g id="g-29" transform="matrix(9.269748, 0, 0, 9.269748, 94.100693, 169.760971)" style="">
    <title>books</title>
    <path d="M30.156 26.492l-6.211-23.184c-0.327-1.183-1.393-2.037-2.659-2.037-0.252 0-0.495 0.034-0.727 0.097l0.019-0.004-2.897 0.776c-0.325 0.094-0.609 0.236-0.86 0.42l0.008-0.005c-0.49-0.787-1.349-1.303-2.33-1.306h-2.998c-0.789 0.001-1.5 0.337-1.998 0.873l-0.002 0.002c-0.5-0.537-1.211-0.873-2-0.874h-3c-1.518 0.002-2.748 1.232-2.75 2.75v24c0.002 1.518 1.232 2.748 2.75 2.75h3c0.789-0.002 1.5-0.337 1.998-0.873l0.002-0.002c0.5 0.538 1.211 0.873 2 0.875h2.998c1.518-0.002 2.748-1.232 2.75-2.75v-16.848l4.699 17.54c0.327 1.182 1.392 2.035 2.656 2.037h0c0.001 0 0.003 0 0.005 0 0.251 0 0.494-0.034 0.725-0.098l-0.019 0.005 2.898-0.775c1.182-0.326 2.036-1.392 2.036-2.657 0-0.252-0.034-0.497-0.098-0.729l0.005 0.019zM18.415 9.708l5.31-1.423 3.753 14.007-5.311 1.422zM18.068 3.59l2.896-0.776c0.097-0.027 0.209-0.043 0.325-0.043 0.575 0 1.059 0.389 1.204 0.918l0.002 0.009 0.841 3.139-5.311 1.423-0.778-2.905v-1.055c0.153-0.347 0.449-0.607 0.812-0.708l0.009-0.002zM11.5 2.75h2.998c0.69 0.001 1.249 0.56 1.25 1.25v3.249l-5.498 0.001v-3.25c0.001-0.69 0.56-1.249 1.25-1.25h0zM8.75 23.25h-5.5v-14.5l5.5-0.001zM10.25 8.75l5.498-0.001v14.501h-5.498zM4.5 2.75h3c0.69 0.001 1.249 0.56 1.25 1.25v3.249l-5.5 0.001v-3.25c0.001-0.69 0.56-1.249 1.25-1.25h0zM7.5 29.25h-3c-0.69-0.001-1.249-0.56-1.25-1.25v-3.25h5.5v3.25c-0.001 0.69-0.56 1.249-1.25 1.25h-0zM14.498 29.25h-2.998c-0.69-0.001-1.249-0.56-1.25-1.25v-3.25h5.498v3.25c-0.001 0.69-0.56 1.249-1.25 1.25h-0zM28.58 27.826c-0.164 0.285-0.43 0.495-0.747 0.582l-0.009 0.002-2.898 0.775c-0.096 0.026-0.206 0.041-0.319 0.041-0.575 0-1.060-0.387-1.208-0.915l-0.002-0.009-0.841-3.14 5.311-1.422 0.841 3.14c0.027 0.096 0.042 0.207 0.042 0.321 0 0.23-0.063 0.446-0.173 0.63l0.003-0.006z" style="fill: rgb(86, 105, 127);"/>
  </g>
</svg>