<?xml version="1.0" encoding="utf-8"?>
<!-- Generator: Adobe Illustrator 28.4.1, SVG Export Plug-In . SVG Version: 6.00 Build 0)  -->
<svg version="1.1" id="Capa_1" xmlns="http://www.w3.org/2000/svg" xmlns:xlink="http://www.w3.org/1999/xlink" x="0px" y="0px"
	 viewBox="0 0 800 800" style="enable-background:new 0 0 800 800;" xml:space="preserve">
<style type="text/css">
	.st0{fill:none;stroke:#566A7F;stroke-width:20;stroke-miterlimit:133.3333;}
	.st1{fill:none;stroke:#566A7F;stroke-width:20;stroke-linecap:round;stroke-miterlimit:133.3333;}
</style>
<g id="SVGRepo_bgCarrier">
</g>
<g id="SVGRepo_tracerCarrier">
</g>
<g id="SVGRepo_iconCarrier">
	<circle class="st0" cx="408.7" cy="116.8" r="73.2"/>
	<path class="st1" d="M610,190 M536.8,190"/>
	<path class="st1" d="M555.1,336.4c0-3,0-6.1,0-9.1c0-45.5-65.5-82.3-146.4-82.3c-80.8,0-146.4,36.9-146.4,82.3s0,82.3,146.4,82.3
		c40.8,0,70.3-2.9,91.5-8"/>
</g>
<g id="SVGRepo_bgCarrier_00000041275377184260257720000003440362174240932501_">
</g>
<g id="SVGRepo_tracerCarrier_00000111189071256508163870000010709788238872484777_">
</g>
<g id="SVGRepo_iconCarrier_00000176003915588155791200000004121071148025831595_">
	<circle class="st0" cx="203.7" cy="468.7" r="73.2"/>
	<path class="st1" d="M405,541.9 M331.8,541.9"/>
	<path class="st1" d="M350.1,688.3c0-3,0-6.1,0-9.1c0-45.5-65.5-82.3-146.4-82.3c-80.8,0-146.4,36.9-146.4,82.3s0,82.3,146.4,82.3
		c40.8,0,70.3-2.9,91.5-8"/>
</g>
<g id="SVGRepo_bgCarrier_00000114767185521792217960000011092113019168932769_">
</g>
<g id="SVGRepo_tracerCarrier_00000094590214493859357310000016012373950150154645_">
</g>
<g id="SVGRepo_iconCarrier_00000067958673332591314800000009565793399793062333_">
	<circle class="st0" cx="628.3" cy="468.7" r="73.2"/>
	<path class="st1" d="M829.6,541.9 M756.4,541.9"/>
	<path class="st1" d="M774.7,688.3c0-3,0-6.1,0-9.1c0-45.5-65.5-82.3-146.4-82.3c-80.8,0-146.4,36.9-146.4,82.3s0,82.3,146.4,82.3
		c40.8,0,70.3-2.9,91.5-8"/>
</g>
</svg>
