<?xml version="1.0" encoding="utf-8"?>
<!-- Generator: Adobe Illustrator 28.4.1, SVG Export Plug-In . SVG Version: 6.00 Build 0)  -->
<svg version="1.1" id="Layer_1" xmlns="http://www.w3.org/2000/svg" xmlns:xlink="http://www.w3.org/1999/xlink" x="0px" y="0px"
	 viewBox="0 0 800 800" style="enable-background:new 0 0 800 800;" xml:space="preserve">
<style type="text/css">
	.st0{fill:none;stroke:#697A8D;stroke-width:32;stroke-miterlimit:133.3333;}
	.st1{fill:none;stroke:#697A8D;stroke-width:32;stroke-linecap:round;stroke-miterlimit:133.3333;}
	.st2{fill:none;stroke:#566A7F;stroke-width:25;stroke-linecap:round;stroke-miterlimit:133.3333;}
	.st3{fill:#566A7F;}
</style>
<g id="SVGRepo_bgCarrier">
</g>
<g id="SVGRepo_tracerCarrier">
</g>
<g id="SVGRepo_iconCarrier">
	<circle class="st0" cx="400" cy="200" r="133.3"/>
	<path class="st1" d="M666.6,600c0.1-5.5,0.1-11,0.1-16.7c0-82.8-119.4-150-266.7-150c-147.3,0-266.7,67.2-266.7,150
		s0,150,266.7,150c74.4,0,128-5.2,166.7-14.6"/>
</g>
<g id="SVGRepo_bgCarrier_00000041983071275380280770000004879813574543453588_">
</g>
<g id="SVGRepo_tracerCarrier_00000047744305542068249520000018308414479886120343_">
</g>
<g id="SVGRepo_iconCarrier_00000130648615908692758380000014651091125600585641_">
	<path class="st2" d="M610.5,292.7c24.6-40.6,39.5-60.9,61.4-60.9c24.9,0,40.6,26.3,72.1,78.8l3.9,6.5
		c26.1,43.6,39.2,65.4,27.4,81.4c-11.8,16-41.1,16-99.5,16h-7.8c-58.5,0-87.7,0-99.5-16c-10.3-13.8-1.8-32.1,17.8-65.2"/>
	<path class="st2" d="M671.8,282.6v50.7"/>
	<ellipse class="st3" cx="671.8" cy="363.7" rx="10.8" ry="10.1"/>
</g>
</svg>
