<?xml version="1.0" encoding="UTF-8"?>
<svg id="Camada_1" data-name="Camada 1" xmlns="http://www.w3.org/2000/svg" version="1.1" viewBox="0 0 800 800">
  <defs>
    <style>
      .cls-1, .cls-2, .cls-3 {
        fill: none;
        stroke-miterlimit: 133.3;
      }

      .cls-1, .cls-3 {
        stroke: #697a8d;
        stroke-width: 28px;
      }

      .cls-2 {
        stroke: #566a7f;
        stroke-width: 19px;
      }

      .cls-2, .cls-3 {
        stroke-linecap: round;
      }
    </style>
  </defs>
  <g id="SVGRepo_iconCarrier" data-name="SVGRepo iconCarrier">
    <circle class="cls-1" cx="400" cy="328.2" r="101.3"/>
    <path class="cls-3" d="M602.5,632c0-4.2,0-8.4,0-12.7,0-62.9-90.7-113.9-202.6-113.9s-202.6,51-202.6,113.9,0,113.9,202.6,113.9,97.2-4,126.6-11.1"/>
  </g>
  <g id="SVGRepo_iconCarrier-2" data-name="SVGRepo iconCarrier">
    <path class="cls-2" d="M737.4,143.3c1.8-19,2.7-28.5-.6-32.4-1.8-2.1-4.1-3.4-6.7-3.6-4.7-.4-10.6,6.3-22.5,19.8-6.1,7-9.2,10.5-12.6,11-1.9.3-3.8,0-5.6-.9-3.2-1.6-5.3-5.9-9.5-14.5l-22.2-45.5c-8-16.3-11.9-24.4-18-24.4s-10,8.1-18,24.4l-22.2,45.5c-4.2,8.6-6.3,12.9-9.5,14.5-1.7.9-3.7,1.2-5.6.9-3.4-.5-6.5-4-12.6-11-11.9-13.5-17.8-20.2-22.5-19.8-2.6.2-4.9,1.5-6.7,3.6-3.2,3.9-2.4,13.4-.6,32.4l2.3,24.2c3.7,39.8,5.6,59.7,17.3,71.7,11.7,12,29.3,12,64.5,12h27c35.2,0,52.7,0,64.5-12,9.1-9.3,12.2-23.3,14.9-47.5"/>
    <path class="cls-2" d="M610,211.4h59.5"/>
  </g>
</svg>