<?xml version="1.0" encoding="utf-8"?>
<!-- Generator: Adobe Illustrator 28.4.1, SVG Export Plug-In . SVG Version: 6.00 Build 0)  -->
<svg version="1.1" id="Capa_1" xmlns="http://www.w3.org/2000/svg" xmlns:xlink="http://www.w3.org/1999/xlink" x="0px" y="0px"
	 viewBox="0 0 800 800" style="enable-background:new 0 0 800 800;" xml:space="preserve">
<style type="text/css">
	.st0{fill:#566A7F;stroke:#566A7F;stroke-width:2.3146;stroke-miterlimit:9.2585;}
	.st1{fill:none;stroke:#566A7F;stroke-width:32;stroke-linecap:round;stroke-miterlimit:133.3333;}
</style>
<g id="SVGRepo_bgCarrier">
</g>
<g id="SVGRepo_tracerCarrier">
</g>
<g id="SVGRepo_iconCarrier">
	<path class="st0" d="M738.4,800c-7.3,0-14.2-4.4-17.2-11.6l-9.1-22.4c-31.1-76.5-67.6-109.2-122.2-109.2h-69.4
		c-21.1,0-39.2,4.9-55.4,15c-8.7,5.4-20.1,2.7-25.5-5.9c-5.4-8.7-2.7-20.1,5.9-25.5c21.9-13.6,47.2-20.6,74.9-20.6h69.4
		c92.1,0,133.4,75.5,156.5,132.3l9.1,22.4c3.8,9.5-0.7,20.3-10.2,24.1C743,799.6,740.7,800,738.4,800z M427.9,800
		c-7.3,0-14.2-4.4-17.2-11.6l-9.1-22.4c-31.1-76.5-67.6-109.2-122.2-109.2h-69.4c-54.6,0-91.1,32.6-122.2,109.2l-9.1,22.4
		c-3.8,9.5-14.6,14-24.1,10.2c-9.5-3.8-14-14.6-10.2-24.1l9.1-22.4c23-56.8,64.3-132.3,156.5-132.3h69.4
		c92.2,0,133.4,75.5,156.5,132.3l9.1,22.4c3.8,9.5-0.7,20.3-10.2,24.1C432.6,799.6,430.2,800,427.9,800z M555.2,584.2
		c-57.3,0-103.9-46.6-103.9-104c0-47.2,31.6-87.1,74.8-99.8c0.2-0.1,0.5-0.1,0.7-0.2c9.2-2.6,18.8-4,28.5-4c53,0,97,39.2,103.2,91.6
		c0.5,4.1,0.7,8.2,0.7,12.4C659.2,537.5,612.5,584.2,555.2,584.2z M518.7,424.2c-18.3,12-30.4,32.6-30.4,56.1
		c0,36.9,30,66.9,66.9,66.9c32.4,0,59.5-23.1,65.6-53.7c-1.3,0.1-2.7,0.1-4,0.1C571.6,493.5,533,465,518.7,424.2z M554.2,413.3
		c9.6,25.5,34.1,43.1,62.6,43.1c0.3,0,0.6,0,1,0C608.1,430.9,583.1,412.9,554.2,413.3z M244.8,584.2c-57.3,0-104-46.6-104-104
		c0-57.2,46.4-103.8,103.6-104c0.3,0,0.5,0,0.8,0c53.7,0,98.2,40.3,103.4,93.6c0.1,1.5,0.1,2.9-0.1,4.3c0.1,2,0.2,4,0.2,6
		C348.7,537.5,302.1,584.2,244.8,584.2z M208.6,423.9c-18.5,11.9-30.8,32.7-30.8,56.3c0,36.9,30,66.9,66.9,66.9
		c32.4,0,59.5-23.1,65.6-53.7c-1.2,0-2.4,0.1-3.6,0.1C261.5,493.5,222.8,464.9,208.6,423.9z M244.2,413.3
		c9.6,25.5,34.1,43.1,62.6,43.1c0.2,0,0.4,0,0.5,0c-9.6-25.2-34-43.1-62.6-43.1C244.6,413.3,244.4,413.3,244.2,413.3z M544.7,343.8
		c-6,0-11.9-2.9-15.4-8.3c-24.9-37.5-55-54.9-94.6-54.9h-69.4c-39.6,0-69.7,17.4-94.6,54.9c-5.7,8.5-17.2,10.8-25.7,5.2
		c-8.5-5.7-10.8-17.2-5.2-25.7c31.5-47.4,73.7-71.4,125.4-71.4h69.4c51.7,0,93.9,24,125.4,71.4c5.7,8.5,3.4,20-5.2,25.7
		C551.8,342.8,548.3,343.8,544.7,343.8z M400,207.9c-57.3,0-103.9-46.6-103.9-104C296,46.6,342.7,0,400,0c0.1,0,0.3,0,0.4,0
		c53.7,0,98.2,40.3,103.4,93.6c0.1,1.5,0.1,2.9-0.1,4.3c0.1,2,0.2,4,0.2,6C504,161.3,457.3,207.9,400,207.9z M363.8,47.7
		c-18.5,11.9-30.8,32.7-30.8,56.3c0,36.9,30,66.9,66.9,66.9c32.4,0,59.5-23.1,65.6-53.7c-1.2,0-2.4,0.1-3.6,0.1
		C416.7,117.2,378,88.6,363.8,47.7z M399.4,37c9.6,25.5,34.1,43.1,62.6,43.1c0.2,0,0.4,0,0.6,0C453,55,428.7,37.1,400.2,37
		C399.9,37,399.7,37,399.4,37z"/>
</g>
<path class="st1" d="M726.8,141.2h-66.7 M658.2,141.2h-66.7 M658.2,141.2V74.6 M658.2,141.2v66.7"/>
</svg>
