<?xml version="1.0" encoding="UTF-8"?>
<svg id="icon" xmlns="http://www.w3.org/2000/svg" version="1.1" viewBox="0 0 800 800">
  <defs>
    <style>
      .cls-1 {
        fill: #697a8d;
      }

      .cls-1, .cls-2 {
        stroke: #697a8d;
        stroke-miterlimit: 100;
        stroke-width: 0px;
      }

      .cls-3 {
        stroke: #566a7f;
        stroke-linecap: round;
        stroke-miterlimit: 133.3;
        stroke-width: 29px;
      }

      .cls-3, .cls-2 {
        fill: none;
      }
    </style>
  </defs>
  <g id="SVGRepo_iconCarrier" data-name="SVGRepo iconCarrier">
    <rect class="cls-1" x="477.7" y="495.6" width="205.5" height="41.1"/>
    <rect class="cls-1" x="477.7" y="577.8" width="205.5" height="41.1"/>
    <rect class="cls-1" x="477.7" y="660" width="205.5" height="41.1"/>
    <path class="cls-1" d="M395.5,495.6c-44.4,1-81.2-34.2-82.2-78.6,0-1.2,0-2.4,0-3.6-1-44.4,34.2-81.2,78.6-82.2,1.2,0,2.4,0,3.6,0,44.4-1,81.2,34.2,82.2,78.6,0,1.2,0,2.4,0,3.6h41.1c0-68.1-55.2-123.3-123.3-123.3s-123.3,55.2-123.3,123.3,55.2,123.3,123.3,123.3v-41.1Z"/>
    <path class="cls-1" d="M669,311.5l-48.5-84c-9.8-17-30.2-24.7-48.8-18.4l-50,16.9c-8.6-5.8-17.6-11-27-15.6l-10.4-51.8c-3.8-19.2-20.7-33-40.3-33h-97c-19.6,0-36.5,13.8-40.3,33l-10.4,51.8c-9.4,4.5-18.6,9.7-27.3,15.5l-49.7-16.8c-18.6-6.3-39,1.4-48.8,18.4l-48.5,84c-9.8,17-6.3,38.5,8.5,51.4l39.7,34.9c-.4,5.2-.8,10.3-.8,15.6s.2,10.5.6,15.7l-39.5,34.7c-14.7,12.9-18.3,34.5-8.5,51.4l48.5,84c9.8,17,30.2,24.7,48.8,18.4l50-16.9c8.6,5.8,17.6,11,27,15.6l10.4,51.8c3.8,19.2,20.7,33,40.3,33h48.5v-41.1h-48.5l-14.6-73c-20.2-7.5-38.9-18.4-55.4-32.3l-70.8,24-48.5-84,56-49.2c-3.8-21.3-3.9-43-.1-64.3l-55.9-49.1,48.5-84,70.4,23.8c16.6-13.9,35.5-24.8,55.8-32.2l14.6-73h97l14.6,73c20.2,7.5,38.9,18.4,55.4,32.3l70.8-24,48.5,84-57.5,50.4,27.1,30.9,57.5-50.4c14.7-12.9,18.3-34.5,8.5-51.4Z"/>
    <rect id="_Transparent_Rectangle_" data-name=" Transparent Rectangle " class="cls-2" x="66.7" y="84.5" width="657.6" height="657.6"/>
  </g>
  <path class="cls-3" d="M757.7,117.9h-66.7M691,117.9h-66.7M691,117.9V51.2M691,117.9v66.7"/>
</svg>