<?xml version="1.0" encoding="utf-8"?>
<!-- Generator: Adobe Illustrator 28.4.1, SVG Export Plug-In . SVG Version: 6.00 Build 0)  -->
<svg version="1.1" id="Layer_1" xmlns="http://www.w3.org/2000/svg" xmlns:xlink="http://www.w3.org/1999/xlink" x="0px" y="0px"
	 viewBox="0 0 800 800" style="enable-background:new 0 0 800 800;" xml:space="preserve">
<style type="text/css">
	.st0{fill:#566A7F;stroke:#566A7F;stroke-width:7.999999e-03;stroke-miterlimit:66.6667;}
	.st1{fill-rule:evenodd;clip-rule:evenodd;fill:#566A7F;stroke:#566A7F;stroke-width:7.999999e-03;stroke-miterlimit:66.6667;}
	.st2{fill:none;stroke:#566A7F;stroke-width:32;stroke-linecap:round;stroke-miterlimit:133.3333;}
</style>
<g id="SVGRepo_bgCarrier">
</g>
<g id="SVGRepo_tracerCarrier">
</g>
<g id="SVGRepo_iconCarrier">
	<path class="st0" d="M450,666.7c0,27.6-22.4,50-50,50c-27.6,0-50-22.4-50-50c0-27.6,22.4-50,50-50C427.6,616.7,450,639.1,450,666.7
		z"/>
	<path class="st1" d="M510.3,618.4c-7.1-26.7,8.7-54.1,35.4-61.2l32.2-8.6c26.7-7.1,54.1,8.7,61.2,35.4l17.3,64.4
		c7.1,26.7-8.7,54.1-35.4,61.2l-32.2,8.6c-26.7,7.1-54.1-8.7-61.2-35.4L510.3,618.4z M554.3,589.4c-8.9,2.4-14.2,11.5-11.8,20.4
		l17.3,64.4c2.4,8.9,11.5,14.2,20.4,11.8l32.2-8.6c8.9-2.4,14.2-11.5,11.8-20.4l-17.3-64.4c-2.4-8.9-11.5-14.2-20.4-11.8
		L554.3,589.4z"/>
	<path class="st1" d="M160.9,583.9c7.1-26.7,34.6-42.5,61.2-35.4l32.2,8.6c26.7,7.1,42.5,34.6,35.4,61.2l-17.3,64.4
		c-7.1,26.7-34.6,42.5-61.2,35.4l-32.2-8.6c-26.7-7.1-42.5-34.6-35.4-61.2L160.9,583.9z M213.5,580.7c-8.9-2.4-18,2.9-20.4,11.8
		l-17.3,64.4c-2.4,8.9,2.9,18,11.8,20.4l32.2,8.6c8.9,2.4,18-2.9,20.4-11.8l17.3-64.4c2.4-8.9-2.9-18-11.8-20.4L213.5,580.7z"/>
	<path class="st1" d="M264,650h119.4V517.6c-47.8,5.3-88.9,33.1-112.3,72.5c-4.2-8-11.5-14.3-21-16.9l-6.7-1.8
		c32.2-52.8,90.3-88.1,156.7-88.1c66.4,0,124.5,35.3,156.7,88.1l-6.7,1.8c-9.4,2.5-16.8,8.8-21,16.8
		c-23.5-39.5-64.5-67.2-112.4-72.5V650H536l7.6,28.5c0.5,1.7,1,3.3,1.7,4.9H400H254.6c0.7-1.6,1.3-3.2,1.7-4.9L264,650z
		 M251.6,688.7c-6.9,10-18.9,15.7-31.3,14.2c4,19.8,11.1,38.5,20.9,55.4l28.9-16.7C260.8,725.7,254.4,707.8,251.6,688.7z
		 M529.9,741.7c9.3-16,15.6-33.9,18.4-52.9c6.9,10,18.9,15.7,31.4,14.2c-4,19.8-11.1,38.4-20.9,55.4L529.9,741.7z"/>
	<path class="st1" d="M250,283.3v-50h33.3v50c0,64.4,52.2,116.7,116.7,116.7s116.7-52.2,116.7-116.7v-50H550v50
		c0,82.8-67.2,150-150,150S250,366.2,250,283.3z"/>
	<path class="st1" d="M260,104.2c-8.5,6.9-10,11.7-10,14.1c0,24,3.9,42.8,7.6,55.5c1.1,3.8,2.2,7,3.2,9.6h278.3
		c1-2.6,2.1-5.8,3.2-9.6c3.8-12.6,7.6-31.5,7.6-55.5c0-2.3-1.5-7.2-10-14.1c-8.2-6.6-20.6-13.2-36.1-19
		c-31-11.5-70.7-18.6-103.9-18.6s-72.9,7-103.9,18.6C280.6,91,268.2,97.6,260,104.2z M528.4,216.7H271.6c1.1,1.5,2.5,3.1,4.1,4.7
		C288.4,233.5,320.5,250,400,250s111.6-16.5,124.2-28.6C525.9,219.7,527.2,218.2,528.4,216.7z M233.1,203.4c-0.3-0.7-0.7-1.5-1-2.4
		c-1.8-4.2-4.1-10.2-6.4-17.8c-4.6-15.3-9-37.4-9-65c0-17,10.5-30.4,22.3-39.9c12.1-9.8,28.2-17.9,45.5-24.3
		c34.8-12.9,78.4-20.7,115.5-20.7s80.8,7.7,115.5,20.7c17.3,6.5,33.4,14.5,45.5,24.3c11.8,9.6,22.3,22.9,22.3,39.9
		c0,27.6-4.5,49.7-9,65c-2.3,7.7-4.6,13.6-6.4,17.8c-0.4,0.9-0.7,1.6-1,2.3c0,2.8-0.3,6.5-1.2,10.6c-2.1,9.2-7.1,20.5-18.2,31.3
		c-21.9,21.2-64.8,38-147.4,38s-125.5-16.8-147.4-38c-11.1-10.8-16.2-22.1-18.2-31.3C233.4,209.9,233.2,206.3,233.1,203.4z"/>
	<path class="st0" d="M333.3,133.3c0-9.2,7.5-16.7,16.7-16.7h100c9.2,0,16.7,7.5,16.7,16.7S459.2,150,450,150H350
		C340.8,150,333.3,142.5,333.3,133.3z"/>
</g>
<path class="st2" d="M765.7,91.7H699 M699,91.7h-66.7 M699,91.7V25 M699,91.7v66.7"/>
</svg>
