<?xml version="1.0" encoding="UTF-8"?>
<svg id="Camada_1" data-name="Camada 1" xmlns="http://www.w3.org/2000/svg" version="1.1" viewBox="0 0 800 800">
  <defs>
    <style>
      .cls-1, .cls-2, .cls-3, .cls-4 {
        fill: none;
      }

      .cls-1, .cls-4 {
        stroke: #697a8d;
        stroke-miterlimit: 133.3;
        stroke-width: 32px;
      }

      .cls-2, .cls-3 {
        stroke: #566a7f;
        stroke-miterlimit: 133.3;
        stroke-width: 26px;
      }

      .cls-2, .cls-4 {
        stroke-linecap: round;
      }
    </style>
  </defs>
  <g id="SVGRepo_iconCarrier" data-name="SVGRepo iconCarrier">
    <circle class="cls-3" cx="156.8" cy="271.3" r="30.2"/>
    <path class="cls-2" d="M72.8,257.6c4.8,3,7.8,8.1,7.8,13.7,0,5.6-3.1,10.7-7.8,13.7-3.2,2-5.3,3.7-6.8,5.6-3.3,4.2-4.7,9.6-4,14.9.5,4,2.9,8,7.6,16.2,4.7,8.1,7,12.2,10.2,14.6,4.2,3.3,9.6,4.7,14.9,4,2.4-.3,4.9-1.3,8.3-3.1,5-2.6,10.9-2.7,15.8,0,4.9,2.8,7.7,8,8,13.6.1,3.8.5,6.4,1.4,8.7,2,4.9,6,8.9,10.9,10.9,3.7,1.5,8.4,1.5,17.8,1.5s14.1,0,17.8-1.5c4.9-2,8.9-6,10.9-10.9.9-2.3,1.3-4.9,1.4-8.7.2-5.6,3.1-10.8,8-13.6,4.9-2.8,10.8-2.7,15.8,0,3.4,1.8,5.8,2.8,8.3,3.1,5.3.7,10.7-.7,14.9-4,3.2-2.4,5.5-6.5,10.2-14.6,2.1-3.6,3.7-6.4,4.9-8.8M240.8,285c-4.8-3-7.8-8.1-7.8-13.7,0-5.6,3.1-10.7,7.8-13.7,3.2-2,5.3-3.7,6.8-5.6,3.3-4.2,4.7-9.6,4-14.9-.5-4-2.9-8-7.6-16.2-4.7-8.1-7-12.2-10.2-14.6-4.2-3.3-9.6-4.7-14.9-4-2.4.3-4.9,1.3-8.3,3.1-5,2.6-10.9,2.7-15.8,0-4.9-2.8-7.7-8-8-13.6-.1-3.8-.5-6.4-1.4-8.7-2-4.9-6-8.9-10.9-10.9-3.7-1.5-8.4-1.5-17.8-1.5s-14.1,0-17.8,1.5c-4.9,2-8.9,6-10.9,10.9-.9,2.3-1.3,4.9-1.4,8.7-.2,5.6-3.1,10.8-8,13.6-4.9,2.8-10.8,2.7-15.8,0-3.4-1.8-5.8-2.8-8.3-3.1-5.3-.7-10.7.7-14.9,4-3.2,2.4-5.5,6.5-10.2,14.6-2.1,3.6-3.7,6.4-4.9,8.8"/>
  </g>
  <g id="SVGRepo_iconCarrier-2" data-name="SVGRepo iconCarrier-2">
    <circle class="cls-1" cx="400" cy="200" r="133.3"/>
    <path class="cls-4" d="M666.6,600v-16.7c0-82.8-119.4-150-266.7-150s-266.7,67.2-266.7,150,0,150,266.7,150,128-5.2,166.7-14.6"/>
  </g>
</svg>