<?xml version="1.0" encoding="UTF-8"?>
<svg id="Camada_1" data-name="Camada 1" xmlns="http://www.w3.org/2000/svg" version="1.1" viewBox="0 0 800 800">
  <defs>
    <style>
      .cls-1, .cls-2, .cls-3, .cls-4 {
        fill: none;
      }

      .cls-1, .cls-4 {
        stroke: #697a8d;
        stroke-miterlimit: 133.3;
        stroke-width: 18px;
      }

      .cls-2, .cls-3 {
        stroke: #566a7f;
        stroke-miterlimit: 133.3;
        stroke-width: 14px;
      }

      .cls-2, .cls-4 {
        stroke-linecap: round;
      }

      .cls-5 {
        fill-rule: evenodd;
      }

      .cls-5, .cls-6 {
        fill: #566a7f;
        stroke-width: 0px;
      }
    </style>
  </defs>
  <g id="SVGRepo_iconCarrier" data-name="SVGRepo iconCarrier">
    <path class="cls-6" d="M657.1,732.2c0,15.8-12.8,28.6-28.6,28.6s-28.6-12.8-28.6-28.6,12.8-28.6,28.6-28.6,28.6,12.8,28.6,28.6Z"/>
    <path class="cls-5" d="M691.5,704.6c-4.1-15.3,4.9-31,20.2-35l18.4-4.9c15.3-4.1,31,4.9,35,20.2l9.8,36.8c4.1,15.3-4.9,31-20.2,35l-18.4,4.9c-15.3,4.1-31-4.9-35-20.2l-9.8-36.8ZM716.7,688c-5.1,1.4-8.2,6.6-6.7,11.7l9.8,36.8c1.4,5.1,6.6,8.2,11.7,6.7l18.4-4.9c5.1-1.4,8.2-6.6,6.7-11.7l-9.8-36.8c-1.4-5.1-6.6-8.2-11.7-6.7l-18.4,4.9Z"/>
    <path class="cls-5" d="M491.6,684.8c4.1-15.3,19.8-24.4,35-20.2l18.4,4.9c15.3,4.1,24.4,19.8,20.2,35l-9.8,36.8c-4.1,15.3-19.8,24.4-35,20.2l-18.4-4.9c-15.3-4.1-24.4-19.8-20.2-35l9.8-36.8h0ZM521.8,683c-5.1-1.4-10.4,1.7-11.7,6.7l-9.8,36.8c-1.4,5.1,1.7,10.4,6.7,11.7l18.4,4.9c5.1,1.4,10.4-1.7,11.7-6.7l9.8-36.8c1.4-5.1-1.7-10.4-6.7-11.7l-18.4-4.9h0Z"/>
    <path class="cls-5" d="M550.5,722.6h68.3v-75.8c-27.3,3-50.8,18.9-64.3,41.5-2.3-4.5-6.6-8.2-12.1-9.6l-3.9-1c18.4-30.2,51.7-50.4,89.7-50.4s71.3,20.2,89.7,50.4l-3.9,1c-5.4,1.4-9.6,5.1-12.1,9.6-13.5-22.5-36.9-38.5-64.3-41.5v75.8h68.3l4.4,16.3c.3.9.6,1.9,1,2.7h-166.4c.4-.9.8-1.8,1-2.9l4.4-16.3h0ZM543.5,744.8c-3.9,5.7-10.9,8.9-17.9,8.2,2.3,11.3,6.4,22,11.9,31.7l16.5-9.6c-5.3-9.2-8.9-19.4-10.5-30.3h0ZM702.8,775.1c5.3-9.2,8.9-19.4,10.5-30.3,3.9,5.7,10.9,8.9,17.9,8.2-2.3,11.3-6.4,22-11.9,31.7l-16.5-9.6h0Z"/>
    <path class="cls-5" d="M542.6,512.8v-28.6h19v28.6c0,36.9,29.9,66.7,66.7,66.7s66.7-29.9,66.7-66.7v-28.6h19v28.6c0,47.4-38.5,85.8-85.8,85.8s-85.8-38.5-85.8-85.8Z"/>
    <path class="cls-5" d="M548.3,410.3c-4.8,3.9-5.7,6.7-5.7,8,0,13.7,2.2,24.5,4.4,31.7.6,2.2,1.3,4,1.8,5.4h159.3c.5-1.6,1.2-3.4,1.8-5.4,2.2-7.3,4.4-18,4.4-31.7s-.9-4.1-5.7-8c-4.7-3.8-11.8-7.5-20.6-10.9-17.8-6.6-40.4-10.6-59.5-10.6s-41.7,4-59.5,10.6c-8.9,3.4-15.9,7-20.6,10.9h-.1ZM701.9,474.7h-147c.6.9,1.4,1.8,2.3,2.7,7.3,7,25.5,16.3,71,16.3s63.9-9.5,71-16.3c.9-.9,1.7-1.8,2.3-2.7h.3ZM532.9,467.2c-.1-.4-.4-.9-.6-1.3-1-2.3-2.3-5.8-3.6-10.2-2.6-8.8-5.2-21.4-5.2-37.2s6.1-17.4,12.8-22.8c6.9-5.6,16.1-10.2,26-13.9,20-7.4,44.8-11.8,66.1-11.8s46.3,4.4,66.1,11.8c10,3.6,19.2,8.3,26,13.9,6.7,5.4,12.8,13.1,12.8,22.8,0,15.8-2.6,28.4-5.2,37.2-1.3,4.4-2.6,7.8-3.6,10.2-.3.5-.4.9-.6,1.3,0,1.6-.1,3.8-.6,6.1-1.2,5.3-4,11.8-10.5,17.9-12.6,12.1-37.1,21.8-84.4,21.8s-71.8-9.6-84.4-21.8c-6.4-6.1-9.2-12.6-10.5-17.9-.5-2.3-.6-4.4-.6-6.1h0Z"/>
    <path class="cls-6" d="M590.3,427c0-5.3,4.3-9.6,9.6-9.6h57.3c5.3,0,9.6,4.3,9.6,9.6s-4.3,9.6-9.6,9.6h-57.3c-5.3,0-9.6-4.3-9.6-9.6Z"/>
  </g>
  <g id="SVGRepo_iconCarrier-2" data-name="SVGRepo iconCarrier-2">
    <g id="ICON">
      <path class="cls-5" d="M434.8,380.1H47c-3.8,0-7,3.1-7,7s3.1,7,7,7h15c-.7,2.1-1.2,4.5-1.2,7v70.5c0,3.8,3.1,7,7,7s7-3.1,7-7v-46.2h304.8c3.8,0,7-3.1,7-7s-3.1-7-7-7H74.7v-10.4c0-3.8,3.1-7,7-7h318.5c3.8,0,7,3.1,7,7v211.3c0,3.8-3.1,7-7,7h-159.3v-71.1c0-42.1-34.1-76.2-76.2-76.2h-13.9c-42.1,0-76.2,34.1-76.2,76.2v121.4c-7.7,2.2-14.7,6.5-20.4,12.1-9.1,9.1-14.1,21.3-14.1,34.3v55.4c0,3.8,3.1,7,7,7h221.6c3.8,0,7-3.1,7-7v-55.4c0-12.9-5.1-25.2-14.1-34.3-5.8-5.8-12.9-9.9-20.4-12.1v-36.7h159.3c11.4,0,20.7-9.3,20.7-20.7v-211.3c0-2.5-.5-4.8-1.2-7h15c3.8,0,7-3.1,7-7s-2.9-6.8-6.8-6.8h-.2ZM227.1,681.4h-28.3c-3.3,19.7-20.4,34.7-41,34.7s-37.7-15-41-34.7h-28.3c-9.2,0-18,3.7-24.5,10.1s-10.1,15.3-10.1,24.5v48.5h27.7v-27.7c0-3.8,3.1-7,7-7s7,3.1,7,7v27.7h124.6v-27.7c0-3.8,3.1-7,7-7s7,3.1,7,7v27.7h27.7v-48.5c0-9.2-3.7-18-10.1-24.5s-15.3-10.1-24.5-10.1h.1ZM184.7,681.4h-53.6c3.1,12,13.9,20.7,26.8,20.7s23.7-8.8,26.9-20.7ZM227.1,667.5H88.6v-119.4c0-34.4,27.9-62.4,62.4-62.4h13.9c34.4,0,62.4,27.9,62.4,62.4v119.4h-.1ZM213.2,549.7c0-3.8-3.1-7-7-7h-44.2l-12-23.9c-1.2-2.4-3.5-3.8-6.1-3.8s-5.1,1.4-6.1,3.8l-12,23.9h-16.5c-3.8,0-7,3.1-7,7v69.3c0,19.1,15.6,34.7,34.7,34.7h41.6c19.1,0,34.7-15.6,34.7-34.7v-69.3h0ZM199.4,556.7v62.4c0,11.4-9.3,20.7-20.7,20.7h-41.6c-11.4,0-20.7-9.3-20.7-20.7v-62.4h13.9c2.6,0,5.1-1.4,6.1-3.8l7.7-15.3,7.7,15.3c1.2,2.4,3.5,3.8,6.1,3.8h41.6ZM299.7,598.3h79.7c3.8,0,7-3.1,7-7s-3.1-7-7-7h-79.7c-3.8,0-7,3.1-7,7s3.1,7,7,7ZM275.6,563.7h103.9c3.8,0,7-3.1,7-7s-3.1-7-7-7h-103.9c-3.8,0-7,3.1-7,7s3.1,7,7,7ZM275.6,529h103.9c3.8,0,7-3.1,7-7s-3.1-7-7-7h-103.9c-3.8,0-7,3.1-7,7s3.1,7,7,7ZM275.6,494.3h103.9c3.8,0,7-3.1,7-7s-3.1-7-7-7h-103.9c-3.8,0-7,3.1-7,7s3.1,7,7,7ZM227.1,459.8h152.3c3.8,0,7-3.1,7-7s-3.1-7-7-7h-152.3c-3.8,0-7,3.1-7,7s3.1,7,7,7Z"/>
    </g>
  </g>
  <g id="SVGRepo_iconCarrier-2" data-name="SVGRepo iconCarrier">
    <circle class="cls-3" cx="310.1" cy="114.6" r="14.9"/>
    <path class="cls-2" d="M268.7,107.9c2.3,1.5,3.9,4,3.9,6.7,0,2.8-1.5,5.3-3.9,6.7-1.6,1-2.6,1.8-3.4,2.8-1.6,2.1-2.3,4.7-2,7.3.3,2,1.4,4,3.7,8,2.3,4,3.5,6,5,7.2,2.1,1.6,4.7,2.3,7.3,2,1.2-.2,2.4-.6,4.1-1.5,2.4-1.3,5.4-1.3,7.8,0,2.4,1.4,3.8,3.9,3.9,6.7,0,1.9.3,3.2.7,4.3,1,2.4,2.9,4.4,5.4,5.4,1.8.8,4.1.8,8.8.8s6.9,0,8.8-.8c2.4-1,4.4-2.9,5.4-5.4.5-1.1.6-2.4.7-4.3.1-2.8,1.5-5.3,3.9-6.7,2.4-1.4,5.3-1.3,7.8,0,1.7.9,2.9,1.4,4.1,1.5,2.6.3,5.2-.4,7.3-2,1.6-1.2,2.7-3.2,5-7.2,1-1.8,1.8-3.2,2.4-4.3M351.5,121.4c-2.3-1.5-3.9-4-3.9-6.7,0-2.8,1.5-5.3,3.9-6.7,1.6-1,2.6-1.8,3.4-2.8,1.6-2.1,2.3-4.7,2-7.3-.3-2-1.4-4-3.7-8-2.3-4-3.5-6-5-7.2-2.1-1.6-4.7-2.3-7.3-2-1.2.2-2.4.6-4.1,1.5-2.4,1.3-5.4,1.3-7.8,0-2.4-1.4-3.8-3.9-3.9-6.7,0-1.9-.3-3.2-.7-4.3-1-2.4-2.9-4.4-5.4-5.4-1.8-.8-4.1-.8-8.8-.8s-6.9,0-8.8.8c-2.4,1-4.4,2.9-5.4,5.4-.5,1.1-.6,2.4-.7,4.3-.1,2.8-1.5,5.3-3.9,6.7-2.4,1.4-5.3,1.3-7.8,0-1.7-.9-2.9-1.4-4.1-1.5-2.6-.3-5.2.4-7.3,2-1.6,1.2-2.7,3.2-5,7.2-1,1.8-1.8,3.2-2.4,4.3"/>
  </g>
  <g id="SVGRepo_iconCarrier-2-2" data-name="SVGRepo iconCarrier-2">
    <circle class="cls-1" cx="429.8" cy="79.5" r="65.6"/>
    <path class="cls-4" d="M561.1,276.5v-8.2c0-40.8-58.8-73.9-131.3-73.9s-131.3,33.1-131.3,73.9,0,73.9,131.3,73.9,63-2.6,82.1-7.2"/>
  </g>
</svg>