<?xml version="1.0" encoding="UTF-8"?>
<svg id="Camada_1" data-name="Camada 1" xmlns="http://www.w3.org/2000/svg" version="1.1" viewBox="0 0 800 800">
  <defs>
    <style>
      .cls-1, .cls-2, .cls-3 {
        fill: none;
      }

      .cls-1, .cls-3 {
        stroke: #697a8d;
        stroke-miterlimit: 133.3;
        stroke-width: 32px;
      }

      .cls-2 {
        stroke: #566a7f;
        stroke-miterlimit: 133.3;
        stroke-width: 29px;
      }

      .cls-2, .cls-3 {
        stroke-linecap: round;
      }
    </style>
  </defs>
  <g id="SVGRepo_iconCarrier" data-name="SVGRepo iconCarrier">
    <path class="cls-1" d="M200,516.7c0-18.4,14.9-33.3,33.3-33.3h333.3c18.4,0,33.3,14.9,33.3,33.3,0,36.8-29.8,66.7-66.7,66.7h-266.7c-36.8,0-66.7-29.8-66.7-66.7Z"/>
    <path class="cls-3" d="M526.3,83.2c-25.1-16.5-58.8-16.5-126.3-16.5s-101.3,0-126.3,16.5c-8,5.2-15.1,11.6-21.3,18.9-19.4,22.9-23.4,56.4-31.5,123.5l-3,25.3c-8.3,69.6-12.5,104.4,7.4,126.8,19.9,22.4,54.9,22.4,125,22.4h99.4c70.1,0,105.1,0,125-22.4,19.9-22.4,15.7-57.2,7.4-126.8l-3-25.3"/>
    <path class="cls-1" d="M400,400v66.7"/>
    <path class="cls-3" d="M400,733.3v-66.7M400,666.7v-83.3M400,666.7h16.7c33.3,0,56.3,35.5,66.7,66.7M400,666.7h-16.7c-33.3,0-56.3,35.5-66.7,66.7M200,516.7l-33.3-83.3c-16.7-33.3-33.3-50-100-50M600,516.7l33.3-83.3c16.7-33.3,33.3-50,100-50"/>
  </g>
  <path class="cls-2" d="M733.4,96.9h-66.7M666.7,96.9h-66.7M666.7,96.9V30.2M666.7,96.9v66.7"/>
</svg>