<?xml version="1.0" encoding="utf-8"?>
<svg viewBox="0 0 500 500" xmlns="http://www.w3.org/2000/svg">
  <defs/>
  <g id="SVGRepo_bgCarrier" transform="matrix(1, 0, 0, 1, -550.674744, 100.650482)"/>
  <g id="SVGRepo_tracerCarrier" transform="matrix(1, 0, 0, 1, -550.674744, 100.650482)"/>
  <g id="SVGRepo_bgCarrier_00000041275377184260257720000003440362174240932501_" transform="matrix(1, 0, 0, 1, -550.674744, 100.650482)"/>
  <g id="SVGRepo_tracerCarrier_00000111189071256508163870000010709788238872484777_" transform="matrix(1, 0, 0, 1, -550.674744, 100.650482)"/>
  <g id="SVGRepo_bgCarrier_00000114767185521792217960000011092113019168932769_" transform="matrix(1, 0, 0, 1, -550.674744, 100.650482)"/>
  <g id="SVGRepo_tracerCarrier_00000094590214493859357310000016012373950150154645_" transform="matrix(1, 0, 0, 1, -550.674744, 100.650482)"/>
  <path class="st0" d="M 474.77 99.853 L 408.07 99.853 M 408.07 99.853 L 341.37 99.853 M 408.07 99.853 L 408.07 33.153 M 408.07 99.853 L 408.07 166.553" style="fill: none; stroke: rgb(86, 106, 127); stroke-linecap: round; stroke-miterlimit: 133.333; stroke-width: 29px;"/>
  <g id="g-1" stroke-width="0" transform="matrix(1, 0, 0, 1, 42.859211, 200.424454)"/>
  <g id="g-2" stroke-linecap="round" stroke-linejoin="round" transform="matrix(1, 0, 0, 1, 42.859211, 200.424454)"/>
  <g id="g-3" stroke-width="0" transform="matrix(1, 0, 0, 1, 86.300964, 287.823212)"/>
  <g id="g-4" stroke-linecap="round" stroke-linejoin="round" transform="matrix(1, 0, 0, 1, 86.300964, 287.823212)"/>
  <g id="g-5" stroke-width="0" transform="matrix(11.120481, 0, 0, 11.120481, 30.230259, 118.187141)" style=""/>
  <g id="g-6" stroke-linecap="round" stroke-linejoin="round" transform="matrix(11.120481, 0, 0, 11.120481, 30.230259, 118.187141)" style=""/>
  <g id="g-7" stroke-width="0" transform="matrix(1, 0, 0, 1, 99.829529, 266.06958)"/>
  <g id="g-8" stroke-linecap="round" stroke-linejoin="round" transform="matrix(1, 0, 0, 1, 99.829529, 266.06958)"/>
  <g id="g-9" stroke-width="0" transform="matrix(0.706319, 0, 0, 0.706319, 38.530773, 121.007156)" style=""/>
  <g id="g-10" stroke-linecap="round" stroke-linejoin="round" transform="matrix(0.706319, 0, 0, 0.706319, 38.530773, 121.007156)" style=""/>
  <g id="g-11" stroke-width="0" transform="matrix(1, 0, 0, 1, 103.291252, 186.220062)"/>
  <g id="g-12" stroke-linecap="round" stroke-linejoin="round" transform="matrix(1, 0, 0, 1, 103.291252, 186.220062)"/>
  <g id="SVGRepo_iconCarrier" data-name="SVGRepo iconCarrier" transform="matrix(0.552792, 0, 0, 0.569054, 33.705883, 45.408566)" style="">
    <circle class="cls-1" cx="400" cy="328.2" r="101.3" style="fill: none; stroke: rgb(105, 122, 141); stroke-miterlimit: 133.3; stroke-width: 28px;"/>
    <path class="cls-3" d="M602.5,632c0-4.2,0-8.4,0-12.7,0-62.9-90.7-113.9-202.6-113.9s-202.6,51-202.6,113.9,0,113.9,202.6,113.9,97.2-4,126.6-11.1" style="fill: none; stroke: rgb(105, 122, 141); stroke-linecap: round; stroke-miterlimit: 133.3; stroke-width: 28px;"/>
  </g>
  <g id="SVGRepo_iconCarrier-2" data-name="SVGRepo iconCarrier" transform="matrix(0.486088, 0, 0, 0.500388, -176.019562, 59.351768)" style="">
    <path class="cls-2" d="M737.4,143.3c1.8-19,2.7-28.5-.6-32.4-1.8-2.1-4.1-3.4-6.7-3.6-4.7-.4-10.6,6.3-22.5,19.8-6.1,7-9.2,10.5-12.6,11-1.9.3-3.8,0-5.6-.9-3.2-1.6-5.3-5.9-9.5-14.5l-22.2-45.5c-8-16.3-11.9-24.4-18-24.4s-10,8.1-18,24.4l-22.2,45.5c-4.2,8.6-6.3,12.9-9.5,14.5-1.7.9-3.7,1.2-5.6.9-3.4-.5-6.5-4-12.6-11-11.9-13.5-17.8-20.2-22.5-19.8-2.6.2-4.9,1.5-6.7,3.6-3.2,3.9-2.4,13.4-.6,32.4l2.3,24.2c3.7,39.8,5.6,59.7,17.3,71.7,11.7,12,29.3,12,64.5,12h27c35.2,0,52.7,0,64.5-12,9.1-9.3,12.2-23.3,14.9-47.5" style="fill: none; stroke: rgb(86, 106, 127); stroke-linecap: round; stroke-miterlimit: 133.3; stroke-width: 19px;"/>
    <path class="cls-2" d="M610,211.4h59.5" style="fill: none; stroke: rgb(86, 106, 127); stroke-linecap: round; stroke-miterlimit: 133.3; stroke-width: 19px;"/>
  </g>
</svg>