<?xml version="1.0" encoding="utf-8"?>
<svg viewBox="0 0 500 500" xmlns="http://www.w3.org/2000/svg">
  <defs/>
  <g id="SVGRepo_iconCarrier" data-name="SVGRepo iconCarrier" transform="matrix(0.725048, 0, 0, 0.725048, -72.069054, -45.994236)" style="">
    <path class="cls-1" d="M610.8,138.7c4-11.3,14.8-19.4,27.5-19.4s23.5,8.1,27.5,19.4" style="fill: none; stroke: rgb(86, 106, 127); stroke-linecap: round; stroke-miterlimit: 133.3; stroke-width: 23px;"/>
    <path class="cls-1" d="M720.7,158.1h-165" style="fill: none; stroke: rgb(86, 106, 127); stroke-linecap: round; stroke-miterlimit: 133.3; stroke-width: 23px;"/>
    <path class="cls-1" d="M700.1,249.3c-1.7,25.8-2.6,38.7-11,46.5-8.4,7.9-21.3,7.9-47.1,7.9h-7.5c-25.8,0-38.7,0-47.1-7.9-8.4-7.9-9.3-20.7-11-46.5l-4.5-67M704.6,182.4l-1.9,29.1" style="fill: none; stroke: rgb(86, 106, 127); stroke-linecap: round; stroke-miterlimit: 133.3; stroke-width: 23px;"/>
    <path class="cls-1" d="M614,206.6l4.9,48.5" style="fill: none; stroke: rgb(86, 106, 127); stroke-linecap: round; stroke-miterlimit: 133.3; stroke-width: 23px;"/>
    <path class="cls-1" d="M662.5,206.6l-4.9,48.5" style="fill: none; stroke: rgb(86, 106, 127); stroke-linecap: round; stroke-miterlimit: 133.3; stroke-width: 23px;"/>
  </g>
  <g id="SVGRepo_bgCarrier" transform="matrix(1, 0, 0, 1, -682.74054, 126.681519)"/>
  <g id="SVGRepo_tracerCarrier" transform="matrix(1, 0, 0, 1, -682.74054, 126.681519)"/>
  <g id="SVGRepo_bgCarrier_00000041275377184260257720000003440362174240932501_" transform="matrix(1, 0, 0, 1, -682.74054, 126.681519)"/>
  <g id="SVGRepo_tracerCarrier_00000111189071256508163870000010709788238872484777_" transform="matrix(1, 0, 0, 1, -682.74054, 126.681519)"/>
  <g id="SVGRepo_bgCarrier_00000114767185521792217960000011092113019168932769_" transform="matrix(1, 0, 0, 1, -682.74054, 126.681519)"/>
  <g id="SVGRepo_tracerCarrier_00000094590214493859357310000016012373950150154645_" transform="matrix(1, 0, 0, 1, -682.74054, 126.681519)"/>
  <g id="g-1" stroke-width="0" transform="matrix(1, 0, 0, 1, -89.206581, 226.45549)"/>
  <g id="g-2" stroke-linecap="round" stroke-linejoin="round" transform="matrix(1, 0, 0, 1, -89.206581, 226.45549)"/>
  <g id="g-3" stroke-width="0" transform="matrix(1, 0, 0, 1, -45.764832, 313.854248)"/>
  <g id="g-4" stroke-linecap="round" stroke-linejoin="round" transform="matrix(1, 0, 0, 1, -45.764832, 313.854248)"/>
  <g id="g-5" stroke-width="0" transform="matrix(11.120481, 0, 0, 11.120481, -101.835533, 144.218185)" style=""/>
  <g id="g-6" stroke-linecap="round" stroke-linejoin="round" transform="matrix(11.120481, 0, 0, 11.120481, -101.835533, 144.218185)" style=""/>
  <g id="g-7" stroke-width="0" transform="matrix(1, 0, 0, 1, -32.236263, 292.100616)"/>
  <g id="g-8" stroke-linecap="round" stroke-linejoin="round" transform="matrix(1, 0, 0, 1, -32.236263, 292.100616)"/>
  <g id="g-9" stroke-width="0" transform="matrix(0.706319, 0, 0, 0.706319, -93.535019, 147.038193)" style=""/>
  <g id="g-10" stroke-linecap="round" stroke-linejoin="round" transform="matrix(0.706319, 0, 0, 0.706319, -93.535019, 147.038193)" style=""/>
  <g id="g-11" stroke-width="0" transform="matrix(1, 0, 0, 1, -28.774542, 212.251099)"/>
  <g id="g-12" stroke-linecap="round" stroke-linejoin="round" transform="matrix(1, 0, 0, 1, -28.774542, 212.251099)"/>
  <g id="g-13" stroke-width="0" transform="matrix(12.38594, 0, 0, 12.38594, -34.747684, 174.975159)" style=""/>
  <g id="g-14" stroke-linecap="round" stroke-linejoin="round" transform="matrix(12.38594, 0, 0, 12.38594, -34.747684, 174.975159)" style=""/>
  <g id="g-15" stroke-width="0" transform="matrix(9.909401, 0, 0, 9.909401, -26.954153, 246.231674)" style=""/>
  <g id="g-16" stroke-linecap="round" stroke-linejoin="round" transform="matrix(9.909401, 0, 0, 9.909401, -26.954153, 246.231674)" style=""/>
  <g id="g-17" transform="matrix(13.062118, 0, 0, 13.062118, -23.836302, 177.731003)" style="">
    <path fill-rule="evenodd" clip-rule="evenodd" d="M 12.949 0.604 C 13.377 0.604 13.724 0.95 13.724 1.379 L 13.724 3.187 L 13.982 3.187 C 13.998 3.187 14.013 3.187 14.029 3.187 C 14.476 3.187 14.886 3.187 15.219 3.231 C 15.587 3.281 15.975 3.396 16.294 3.716 C 16.613 4.035 16.729 4.423 16.779 4.79 C 16.823 5.124 16.823 5.534 16.823 5.981 C 16.823 5.997 16.823 6.012 16.823 6.028 L 16.823 7.455 C 16.892 7.51 16.959 7.569 17.025 7.634 C 17.495 8.105 17.687 8.69 17.774 9.339 C 17.834 9.787 17.85 10.319 17.855 10.935 L 18.373 10.935 L 18.373 7.278 C 18.373 5.977 18.373 4.915 18.493 4.104 C 18.617 3.263 18.892 2.512 19.596 2.025 C 20.299 1.538 21.099 1.543 21.93 1.722 C 22.731 1.894 23.726 2.267 24.943 2.724 L 25.042 2.761 C 25.657 2.993 26.178 3.188 26.587 3.394 C 27.022 3.616 27.398 3.882 27.682 4.291 C 27.965 4.7 28.082 5.147 28.136 5.631 C 28.187 6.087 28.187 6.642 28.187 7.299 L 28.187 21.265 L 28.445 21.265 C 28.873 21.265 29.22 21.611 29.22 22.04 C 29.22 22.468 28.873 22.815 28.445 22.815 L 7.784 22.815 C 7.356 22.815 7.009 22.468 7.009 22.04 C 7.009 21.611 7.356 21.265 7.784 21.265 L 8.042 21.265 L 8.042 11.656 C 8.042 10.727 8.042 9.953 8.125 9.339 C 8.213 8.69 8.404 8.105 8.875 7.634 C 8.939 7.569 9.006 7.51 9.075 7.455 L 9.075 6.028 C 9.075 6.012 9.075 5.997 9.075 5.981 C 9.075 5.534 9.075 5.124 9.121 4.79 C 9.169 4.423 9.286 4.035 9.605 3.716 C 9.924 3.396 10.313 3.281 10.679 3.231 C 11.013 3.187 11.423 3.187 11.871 3.187 C 11.885 3.187 11.901 3.187 11.916 3.187 L 12.174 3.187 L 12.174 1.379 C 12.174 0.95 12.521 0.604 12.949 0.604 Z M 10.625 6.879 C 11.232 6.803 11.99 6.803 12.895 6.803 L 13.003 6.803 C 13.908 6.803 14.667 6.803 15.274 6.879 L 15.274 6.028 C 15.274 5.518 15.272 5.215 15.243 4.997 C 15.229 4.898 15.214 4.847 15.204 4.825 C 15.202 4.82 15.2 4.816 15.199 4.814 L 15.198 4.812 L 15.196 4.811 C 15.194 4.81 15.19 4.808 15.185 4.806 C 15.163 4.796 15.112 4.781 15.013 4.767 C 14.795 4.737 14.491 4.736 13.982 4.736 L 11.916 4.736 C 11.408 4.736 11.104 4.737 10.886 4.767 C 10.786 4.781 10.736 4.796 10.714 4.806 C 10.708 4.808 10.705 4.81 10.703 4.811 L 10.7 4.812 L 10.699 4.814 C 10.698 4.816 10.696 4.82 10.694 4.825 C 10.685 4.847 10.669 4.898 10.656 4.997 C 10.627 5.215 10.625 5.518 10.625 6.028 L 10.625 6.879 Z M 9.592 21.265 L 12.174 21.265 L 12.174 15.788 C 12.174 14.859 12.174 14.086 12.257 13.471 C 12.345 12.822 12.536 12.237 13.007 11.766 C 13.477 11.296 14.063 11.104 14.712 11.017 C 15.159 10.956 15.691 10.941 16.305 10.936 C 16.3 10.347 16.286 9.903 16.238 9.545 C 16.174 9.069 16.063 8.865 15.928 8.73 C 15.794 8.595 15.59 8.484 15.113 8.42 C 14.614 8.353 13.945 8.352 12.949 8.352 C 11.953 8.352 11.285 8.353 10.786 8.42 C 10.309 8.484 10.105 8.595 9.97 8.73 C 9.835 8.865 9.725 9.069 9.661 9.545 C 9.594 10.044 9.592 10.714 9.592 11.71 L 9.592 21.265 Z M 13.724 21.265 L 22.505 21.265 L 22.505 15.842 C 22.505 14.846 22.504 14.177 22.437 13.678 C 22.373 13.201 22.261 12.997 22.127 12.862 C 21.993 12.727 21.788 12.617 21.312 12.553 C 20.813 12.485 20.143 12.484 19.148 12.484 L 17.081 12.484 C 16.085 12.484 15.417 12.485 14.918 12.553 C 14.441 12.617 14.237 12.727 14.102 12.862 C 13.968 12.997 13.857 13.201 13.793 13.678 C 13.726 14.177 13.724 14.846 13.724 15.842 L 13.724 21.265 Z M 24.055 21.265 L 26.637 21.265 L 26.637 7.342 C 26.637 6.631 26.636 6.162 26.596 5.803 C 26.559 5.462 26.492 5.296 26.408 5.174 C 26.323 5.052 26.191 4.932 25.885 4.777 C 25.563 4.612 25.124 4.447 24.458 4.198 C 23.167 3.714 22.279 3.382 21.603 3.236 C 20.943 3.094 20.664 3.17 20.478 3.298 C 20.292 3.427 20.124 3.662 20.026 4.329 C 19.924 5.014 19.922 5.962 19.922 7.342 L 19.922 10.936 C 20.538 10.94 21.07 10.956 21.518 11.017 C 22.167 11.104 22.752 11.296 23.223 11.766 C 23.693 12.237 23.885 12.822 23.972 13.471 C 24.055 14.086 24.055 14.859 24.055 15.788 L 24.055 21.265 Z M 10.7 4.812 C 10.701 4.812 10.701 4.812 10.7 4.812 C 10.7 4.812 10.7 4.812 10.7 4.812 Z M 15.274 14.809 C 15.274 14.38 15.621 14.034 16.048 14.034 L 20.181 14.034 C 20.608 14.034 20.955 14.38 20.955 14.809 C 20.955 15.236 20.608 15.584 20.181 15.584 L 16.048 15.584 C 15.621 15.584 15.274 15.236 15.274 14.809 Z M 15.274 17.908 C 15.274 17.479 15.621 17.133 16.048 17.133 L 20.181 17.133 C 20.608 17.133 20.955 17.479 20.955 17.908 C 20.955 18.336 20.608 18.683 20.181 18.683 L 16.048 18.683 C 15.621 18.683 15.274 18.336 15.274 17.908 Z" fill="#566a7f" style=""/>
  </g>
</svg>