<?xml version="1.0" encoding="utf-8"?>
<svg viewBox="0 0 500 500" xmlns="http://www.w3.org/2000/svg">
  <defs/>
  <g id="SVGRepo_iconCarrier" data-name="SVGRepo iconCarrier" transform="matrix(0.725048, 0, 0, 0.725048, -72.069054, -45.994236)" style="">
    <path class="cls-1" d="M610.8,138.7c4-11.3,14.8-19.4,27.5-19.4s23.5,8.1,27.5,19.4" style="fill: none; stroke: rgb(86, 106, 127); stroke-linecap: round; stroke-miterlimit: 133.3; stroke-width: 23px;"/>
    <path class="cls-1" d="M720.7,158.1h-165" style="fill: none; stroke: rgb(86, 106, 127); stroke-linecap: round; stroke-miterlimit: 133.3; stroke-width: 23px;"/>
    <path class="cls-1" d="M700.1,249.3c-1.7,25.8-2.6,38.7-11,46.5-8.4,7.9-21.3,7.9-47.1,7.9h-7.5c-25.8,0-38.7,0-47.1-7.9-8.4-7.9-9.3-20.7-11-46.5l-4.5-67M704.6,182.4l-1.9,29.1" style="fill: none; stroke: rgb(86, 106, 127); stroke-linecap: round; stroke-miterlimit: 133.3; stroke-width: 23px;"/>
    <path class="cls-1" d="M614,206.6l4.9,48.5" style="fill: none; stroke: rgb(86, 106, 127); stroke-linecap: round; stroke-miterlimit: 133.3; stroke-width: 23px;"/>
    <path class="cls-1" d="M662.5,206.6l-4.9,48.5" style="fill: none; stroke: rgb(86, 106, 127); stroke-linecap: round; stroke-miterlimit: 133.3; stroke-width: 23px;"/>
  </g>
  <g id="SVGRepo_bgCarrier" transform="matrix(1, 0, 0, 1, -682.74054, 126.681519)"/>
  <g id="SVGRepo_tracerCarrier" transform="matrix(1, 0, 0, 1, -682.74054, 126.681519)"/>
  <g id="SVGRepo_bgCarrier_00000041275377184260257720000003440362174240932501_" transform="matrix(1, 0, 0, 1, -682.74054, 126.681519)"/>
  <g id="SVGRepo_tracerCarrier_00000111189071256508163870000010709788238872484777_" transform="matrix(1, 0, 0, 1, -682.74054, 126.681519)"/>
  <g id="SVGRepo_bgCarrier_00000114767185521792217960000011092113019168932769_" transform="matrix(1, 0, 0, 1, -682.74054, 126.681519)"/>
  <g id="SVGRepo_tracerCarrier_00000094590214493859357310000016012373950150154645_" transform="matrix(1, 0, 0, 1, -682.74054, 126.681519)"/>
  <g id="g-1" stroke-width="0" transform="matrix(1, 0, 0, 1, -89.206581, 226.45549)"/>
  <g id="g-2" stroke-linecap="round" stroke-linejoin="round" transform="matrix(1, 0, 0, 1, -89.206581, 226.45549)"/>
  <g id="g-3" stroke-width="0" transform="matrix(1, 0, 0, 1, -45.764832, 313.854248)"/>
  <g id="g-4" stroke-linecap="round" stroke-linejoin="round" transform="matrix(1, 0, 0, 1, -45.764832, 313.854248)"/>
  <g id="g-5" stroke-width="0" transform="matrix(11.120481, 0, 0, 11.120481, -101.835533, 144.218185)" style=""/>
  <g id="g-6" stroke-linecap="round" stroke-linejoin="round" transform="matrix(11.120481, 0, 0, 11.120481, -101.835533, 144.218185)" style=""/>
  <g id="g-7" stroke-width="0" transform="matrix(1, 0, 0, 1, -32.236263, 292.100616)"/>
  <g id="g-8" stroke-linecap="round" stroke-linejoin="round" transform="matrix(1, 0, 0, 1, -32.236263, 292.100616)"/>
  <g id="g-9" stroke-width="0" transform="matrix(0.706319, 0, 0, 0.706319, -93.535019, 147.038193)" style=""/>
  <g id="g-10" stroke-linecap="round" stroke-linejoin="round" transform="matrix(0.706319, 0, 0, 0.706319, -93.535019, 147.038193)" style=""/>
  <g id="g-11" stroke-width="0" transform="matrix(1, 0, 0, 1, -28.774542, 212.251099)"/>
  <g id="g-12" stroke-linecap="round" stroke-linejoin="round" transform="matrix(1, 0, 0, 1, -28.774542, 212.251099)"/>
  <g id="g-13" stroke-width="0" transform="matrix(12.38594, 0, 0, 12.38594, -34.747684, 174.975159)" style=""/>
  <g id="g-14" stroke-linecap="round" stroke-linejoin="round" transform="matrix(12.38594, 0, 0, 12.38594, -34.747684, 174.975159)" style=""/>
  <g id="g-15" stroke-width="0" transform="matrix(9.909401, 0, 0, 9.909401, -26.954153, 246.231674)" style=""/>
  <g id="g-16" stroke-linecap="round" stroke-linejoin="round" transform="matrix(9.909401, 0, 0, 9.909401, -26.954153, 246.231674)" style=""/>
  <g id="g-17" transform="matrix(13.062118, 0, 0, 13.062118, -23.836302, 177.731003)" style=""/>
  <g id="g-18" stroke-width="0" transform="matrix(12.915578, 0, 0, 12.915578, 74.122993, 168.76178)" style=""/>
  <g id="g-19" stroke-linecap="round" stroke-linejoin="round" transform="matrix(12.915578, 0, 0, 12.915578, 74.122993, 168.76178)" style=""/>
  <g id="g-21" stroke-width="0" transform="matrix(1, 0, 0, 1, 95.262573, 153.363129)"/>
  <g id="g-22" stroke-linecap="round" stroke-linejoin="round" transform="matrix(1, 0, 0, 1, 95.262573, 153.363129)"/>
  <g id="g-20" stroke-width="0" transform="matrix(1, 0, 0, 1, 139.955307, 174.592178)"/>
  <g id="g-23" stroke-linecap="round" stroke-linejoin="round" transform="matrix(1, 0, 0, 1, 139.955307, 174.592178)"/>
  <g id="g-25" stroke-width="0" transform="matrix(1, 0, 0, 1, 102.848602, 141.162003)"/>
  <g id="g-26" stroke-linecap="round" stroke-linejoin="round" transform="matrix(1, 0, 0, 1, 102.848602, 141.162003)"/>
  <g id="g-24" stroke-width="0" transform="matrix(1, 0, 0, 1, 108.581009, 180.08989)"/>
  <g id="g-28" stroke-linecap="round" stroke-linejoin="round" transform="matrix(1, 0, 0, 1, 108.581009, 180.08989)"/>
  <g id="g-27" stroke-width="0" transform="matrix(1, 0, 0, 1, -103.486015, -121.363106)"/>
  <g id="g-30" stroke-linecap="round" stroke-linejoin="round" transform="matrix(1, 0, 0, 1, -103.486015, -121.363106)"/>
  <g id="g-29" stroke-width="0" transform="matrix(1, 0, 0, 1, 107.463692, 144.628494)"/>
  <g id="g-32" stroke-linecap="round" stroke-linejoin="round" transform="matrix(1, 0, 0, 1, 107.463692, 144.628494)"/>
  <g id="g-33" transform="matrix(8.774878, 0, 0, 8.774878, 84.900665, 159.944565)" style="">
    <circle class="st0" cx="22" cy="19" r="4" style="fill: none; stroke: rgb(86, 106, 127); stroke-linecap: round; stroke-linejoin: round; stroke-miterlimit: 10; stroke-width: 2px;"/>
    <polyline class="st0" points="25,22 25,31 22,30 19,31 19,22 " style="fill: none; stroke: rgb(86, 106, 127); stroke-linecap: round; stroke-linejoin: round; stroke-miterlimit: 10; stroke-width: 2px;"/>
    <line class="st0" x1="7" y1="11" x2="18" y2="11" style="fill: none; stroke: rgb(86, 106, 127); stroke-linecap: round; stroke-linejoin: round; stroke-miterlimit: 10; stroke-width: 2px;"/>
    <line class="st0" x1="7" y1="15" x2="12" y2="15" style="fill: none; stroke: rgb(86, 106, 127); stroke-linecap: round; stroke-linejoin: round; stroke-miterlimit: 10; stroke-width: 2px;"/>
    <polyline class="st0" points="19,26 3,26 3,6 29,6 29,26 25,26 " style="fill: none; stroke: rgb(86, 106, 127); stroke-linecap: round; stroke-linejoin: round; stroke-miterlimit: 10; stroke-width: 2px;"/>
  </g>
</svg>