<?xml version="1.0" encoding="utf-8"?>
<svg viewBox="0 0 500 500" xmlns="http://www.w3.org/2000/svg">
  <defs/>
  <g id="SVGRepo_iconCarrier" data-name="SVGRepo iconCarrier" transform="matrix(1, 0, 0, 1, -261.631348, -93.116425)">
    <path class="cls-1" d="M610.8,138.7c4-11.3,14.8-19.4,27.5-19.4s23.5,8.1,27.5,19.4" style="fill: none; stroke: rgb(86, 106, 127); stroke-linecap: round; stroke-miterlimit: 133.3; stroke-width: 23px;"/>
    <path class="cls-1" d="M720.7,158.1h-165" style="fill: none; stroke: rgb(86, 106, 127); stroke-linecap: round; stroke-miterlimit: 133.3; stroke-width: 23px;"/>
    <path class="cls-1" d="M700.1,249.3c-1.7,25.8-2.6,38.7-11,46.5-8.4,7.9-21.3,7.9-47.1,7.9h-7.5c-25.8,0-38.7,0-47.1-7.9-8.4-7.9-9.3-20.7-11-46.5l-4.5-67M704.6,182.4l-1.9,29.1" style="fill: none; stroke: rgb(86, 106, 127); stroke-linecap: round; stroke-miterlimit: 133.3; stroke-width: 23px;"/>
    <path class="cls-1" d="M614,206.6l4.9,48.5" style="fill: none; stroke: rgb(86, 106, 127); stroke-linecap: round; stroke-miterlimit: 133.3; stroke-width: 23px;"/>
    <path class="cls-1" d="M662.5,206.6l-4.9,48.5" style="fill: none; stroke: rgb(86, 106, 127); stroke-linecap: round; stroke-miterlimit: 133.3; stroke-width: 23px;"/>
  </g>
  <g id="SVGRepo_bgCarrier" transform="matrix(1, 0, 0, 1, -544.467224, -171.499298)"/>
  <g id="SVGRepo_tracerCarrier" transform="matrix(1, 0, 0, 1, -544.467224, -171.499298)"/>
  <g id="g-1" transform="matrix(0.474568, 0, 0, 0.474568, 18.417795, 91.507965)" style=""/>
  <g id="g-2" transform="matrix(0.474568, 0, 0, 0.474568, 18.417795, 91.507965)" style=""/>
  <g id="g-3" transform="matrix(0.474568, 0, 0, 0.474568, 18.417795, 91.507965)" style="">
    <circle class="st0" cx="408.7" cy="116.8" r="73.2" style="fill: none; stroke: rgb(86, 106, 127); stroke-miterlimit: 133.333; stroke-width: 20px;"/>
    <path class="st1" d="M610,190 M536.8,190" style="fill: none; stroke: rgb(86, 106, 127); stroke-linecap: round; stroke-miterlimit: 133.333; stroke-width: 20px;"/>
    <path class="st1" d="M555.1,336.4c0-3,0-6.1,0-9.1c0-45.5-65.5-82.3-146.4-82.3c-80.8,0-146.4,36.9-146.4,82.3s0,82.3,146.4,82.3&#10;&#9;&#9;c40.8,0,70.3-2.9,91.5-8" style="fill: none; stroke: rgb(86, 106, 127); stroke-linecap: round; stroke-miterlimit: 133.333; stroke-width: 20px;"/>
  </g>
  <g id="SVGRepo_bgCarrier_00000041275377184260257720000003440362174240932501_" transform="matrix(0.474568, 0, 0, 0.474568, 18.417795, 91.507965)" style=""/>
  <g id="SVGRepo_tracerCarrier_00000111189071256508163870000010709788238872484777_" transform="matrix(0.474568, 0, 0, 0.474568, 18.417795, 91.507965)" style=""/>
  <g id="SVGRepo_iconCarrier_00000176003915588155791200000004121071148025831595_" transform="matrix(0.474568, 0, 0, 0.474568, 18.417795, 91.507965)" style="">
    <circle class="st0" cx="203.7" cy="468.7" r="73.2" style="fill: none; stroke: rgb(86, 106, 127); stroke-miterlimit: 133.333; stroke-width: 20px;"/>
    <path class="st1" d="M405,541.9 M331.8,541.9" style="fill: none; stroke: rgb(86, 106, 127); stroke-linecap: round; stroke-miterlimit: 133.333; stroke-width: 20px;"/>
    <path class="st1" d="M350.1,688.3c0-3,0-6.1,0-9.1c0-45.5-65.5-82.3-146.4-82.3c-80.8,0-146.4,36.9-146.4,82.3s0,82.3,146.4,82.3&#10;&#9;&#9;c40.8,0,70.3-2.9,91.5-8" style="fill: none; stroke: rgb(86, 106, 127); stroke-linecap: round; stroke-miterlimit: 133.333; stroke-width: 20px;"/>
  </g>
  <g id="SVGRepo_bgCarrier_00000114767185521792217960000011092113019168932769_" transform="matrix(0.474568, 0, 0, 0.474568, 18.417795, 91.507965)" style=""/>
  <g id="SVGRepo_tracerCarrier_00000094590214493859357310000016012373950150154645_" transform="matrix(0.474568, 0, 0, 0.474568, 18.417795, 91.507965)" style=""/>
  <g id="SVGRepo_iconCarrier_00000067958673332591314800000009565793399793062333_" transform="matrix(0.474568, 0, 0, 0.474568, 18.417795, 91.507965)" style="">
    <circle class="st0" cx="628.3" cy="468.7" r="73.2" style="fill: none; stroke: rgb(86, 106, 127); stroke-miterlimit: 133.333; stroke-width: 20px;"/>
    <path class="st1" d="M829.6,541.9 M756.4,541.9" style="fill: none; stroke: rgb(86, 106, 127); stroke-linecap: round; stroke-miterlimit: 133.333; stroke-width: 20px;"/>
    <path class="st1" d="M774.7,688.3c0-3,0-6.1,0-9.1c0-45.5-65.5-82.3-146.4-82.3c-80.8,0-146.4,36.9-146.4,82.3s0,82.3,146.4,82.3&#10;&#9;&#9;c40.8,0,70.3-2.9,91.5-8" style="fill: none; stroke: rgb(86, 106, 127); stroke-linecap: round; stroke-miterlimit: 133.333; stroke-width: 20px;"/>
  </g>
</svg>