<?xml version="1.0" encoding="UTF-8"?>
<svg id="Camada_1" data-name="Camada 1" xmlns="http://www.w3.org/2000/svg" version="1.1" viewBox="0 0 800 800">
  <defs>
    <style>
      .cls-1 {
        stroke-miterlimit: 133.3;
      }

      .cls-1, .cls-2, .cls-3 {
        fill: none;
      }

      .cls-1, .cls-3 {
        stroke: #697a8d;
        stroke-width: 32px;
      }

      .cls-2 {
        stroke: #566a7f;
        stroke-miterlimit: 133.3;
        stroke-width: 29px;
      }

      .cls-2, .cls-3 {
        stroke-linecap: round;
      }

      .cls-4 {
        fill: #697a8d;
        stroke-width: 0px;
      }

      .cls-3 {
        stroke-linejoin: round;
      }
    </style>
  </defs>
  <g id="SVGRepo_iconCarrier" data-name="SVGRepo iconCarrier">
    <path class="cls-4" d="M163,225c13.8,0,25-11.2,25-25s-11.2-25-25-25v50ZM300,175c-13.8,0-25,11.2-25,25s11.2,25,25,25v-50ZM570.4,225c57,0,104.6,48,104.6,109h50c0-87-68.5-159-154.6-159v50ZM163,175c-86.2,0-154.6,72-154.6,159h50c0-61,47.6-109,104.6-109v-50ZM675,334c0,55.6-39.6,100.5-89.8,107.9l7.3,49.5c75.5-11.2,132.5-77.9,132.5-157.4h-50ZM148.1,441.9c-50.1-7.4-89.8-52.4-89.8-107.9H8.3c0,79.5,56.9,146.2,132.5,157.4l7.3-49.5ZM300,225h270.4v-50h-270.4v50Z"/>
    <path class="cls-3" d="M366.7,400v166.7M366.7,566.7l66.7-77.8M366.7,566.7l-66.7-77.8"/>
    <path class="cls-1" d="M133.3,433.3c0-62.9,0-94.3,19.5-113.8,19.5-19.5,51-19.5,113.8-19.5h200c62.9,0,94.3,0,113.8,19.5,19.5,19.5,19.5,51,19.5,113.8v200c0,62.9,0,94.3-19.5,113.8s-51,19.5-113.8,19.5h-200c-62.9,0-94.3,0-113.8-19.5-19.5-19.5-19.5-51-19.5-113.8v-200Z"/>
    <path class="cls-3" d="M133.3,666.7h266.7M600,666.7h-66.7"/>
  </g>
  <path class="cls-2" d="M781.1,119.9h-66.7M714.4,119.9h-66.7M714.4,119.9V53.2M714.4,119.9v66.7"/>
</svg>