<?xml version="1.0" encoding="UTF-8" standalone="no"?>
<!DOCTYPE svg PUBLIC "-//W3C//DTD SVG 1.1//EN" "http://www.w3.org/Graphics/SVG/1.1/DTD/svg11.dtd">
<!-- Created with Vectornator (http://vectornator.io/) -->
<svg height="100%" stroke-miterlimit="10" style="fill-rule:nonzero;clip-rule:evenodd;stroke-linecap:round;stroke-linejoin:round;" version="1.1" viewBox="0 0 24 24" width="100%" xml:space="preserve" xmlns="http://www.w3.org/2000/svg" xmlns:vectornator="http://vectornator.io" xmlns:xlink="http://www.w3.org/1999/xlink">
<defs/>
<g id="SVGRepo_iconCarrier" vectornator:layerName="SVGRepo_iconCarrier">
<path d="M6 6C6 3.79086 7.79086 2 10 2C12.2091 2 14 3.79086 14 6C14 8.20914 12.2091 10 10 10C7.79086 10 6 8.20914 6 6Z" fill="none" opacity="1" stroke="#697a8d" stroke-linecap="butt" stroke-linejoin="miter" stroke-width="0.96" vectornator:layerName="circle"/>
<path d="M17.9975 18C18 17.8358 18 17.669 18 17.5C18 15.0147 14.4183 13 10 13C5.58172 13 2 15.0147 2 17.5C2 19.9853 2 22 10 22C12.231 22 13.8398 21.8433 15 21.5634" fill="none" opacity="1" stroke="#697a8d" stroke-linecap="round" stroke-linejoin="miter" stroke-width="0.96" vectornator:layerName="path"/>
<path d="M21.4765 7.0498L17.5765 10.9497" fill="none" opacity="1" stroke="#697a8d" stroke-linecap="round" stroke-linejoin="miter" stroke-width="0.936" vectornator:layerName="path 1"/>
<path d="M16.5263 9C16.5263 7.34315 17.8694 6 19.5263 6C21.1831 6 22.5263 7.34315 22.5263 9C22.5263 10.6569 21.1831 12 19.5263 12C17.8694 12 16.5263 10.6569 16.5263 9Z" fill="none" opacity="1" stroke="#697a8d" stroke-linecap="butt" stroke-linejoin="miter" stroke-width="0.936" vectornator:layerName="circle 1"/>
</g>
</svg>
