<?xml version="1.0" encoding="utf-8"?>
<!-- Generator: Adobe Illustrator 28.4.1, SVG Export Plug-In . SVG Version: 6.00 Build 0)  -->
<svg version="1.1" id="Layer_1" xmlns:serif="http://www.serif.com/"
	 xmlns="http://www.w3.org/2000/svg" xmlns:xlink="http://www.w3.org/1999/xlink" x="0px" y="0px" viewBox="0 0 800 800"
	 style="enable-background:new 0 0 800 800;" xml:space="preserve">
<style type="text/css">
	
		.st0{fill-rule:evenodd;clip-rule:evenodd;fill:#566A7F;stroke:#566A7F;stroke-width:7.999999e-03;stroke-linejoin:round;stroke-miterlimit:25;}
</style>
<g id="SVGRepo_bgCarrier">
</g>
<g id="SVGRepo_tracerCarrier">
</g>
<g id="SVGRepo_iconCarrier">
	<g id="ICON">
		<path class="st0" d="M657.6,137H48.4c-6,0-10.9,4.9-10.9,10.9s4.9,10.9,10.9,10.9H72c-1.2,3.4-1.9,7.1-1.9,10.9v110.7
			c0,6,4.9,10.9,10.9,10.9s10.9-4.9,10.9-10.9v-72.6h478.6c6,0,10.9-4.9,10.9-10.9s-4.9-10.9-10.9-10.9H91.9v-16.3
			c0-6,4.9-10.9,10.9-10.9h500.4c6,0,10.9,4.9,10.9,10.9v331.8c0,6-4.9,10.9-10.9,10.9H353V400.8c0-66.1-53.6-119.7-119.7-119.7
			c-7.2,0-14.5,0-21.8,0c-66.1,0-119.7,53.6-119.7,119.7v190.8c-12,3.6-23.1,10.1-32.1,19.1c-14.3,14.3-22.3,33.6-22.3,53.8
			c0,41.3,0,87,0,87c0,6,4.9,10.9,10.9,10.9h348.1c6,0,10.9-4.9,10.9-10.9v-87c0-20.2-8-39.6-22.3-53.8c-9-9-20.1-15.5-32.1-19.1
			V534h250.2c18,0,32.6-14.6,32.6-32.6V169.6c0-3.8-0.7-7.5-1.9-10.9h23.6c6,0,10.9-4.9,10.9-10.9C668.4,141.9,663.6,137,657.6,137z
			 M331.2,610.2h-44.4c-5.2,30.9-32,54.4-64.4,54.4s-59.2-23.5-64.4-54.4h-44.4c-14.4,0-28.3,5.7-38.5,15.9s-15.9,24-15.9,38.5v76.1
			h43.5v-43.5c0-6,4.9-10.9,10.9-10.9s10.9,4.9,10.9,10.9v43.5h195.8v-43.5c0-6,4.9-10.9,10.9-10.9s10.9,4.9,10.9,10.9v43.5h43.5
			v-76.1c0-14.4-5.7-28.3-15.9-38.5C359.5,615.9,345.6,610.2,331.2,610.2z M264.6,610.2h-84.3c4.8,18.8,21.9,32.6,42.1,32.6
			S259.7,629,264.6,610.2z M331.2,588.4H113.6V400.8c0-54.1,43.8-97.9,97.9-97.9c7.2,0,14.5,0,21.8,0c54.1,0,97.9,43.8,97.9,97.9
			V588.4z M309.5,403.5c0-6-4.9-10.9-10.9-10.9h-69.4l-18.8-37.5c-1.8-3.7-5.6-6-9.7-6s-7.9,2.3-9.7,6l-18.8,37.5h-25.9
			c-6,0-10.9,4.9-10.9,10.9v108.8c0,30,24.4,54.4,54.4,54.4c20.5,0,44.8,0,65.3,0c30,0,54.4-24.4,54.4-54.4
			C309.5,467.3,309.5,403.5,309.5,403.5L309.5,403.5z M287.7,414.4v97.9c0,18-14.6,32.6-32.6,32.6h-65.3c-18,0-32.6-14.6-32.6-32.6
			v-97.9H179c4.1,0,7.9-2.3,9.7-6l12-24.1l12,24.1c1.8,3.7,5.6,6,9.7,6H287.7L287.7,414.4z M445.4,479.7h125.1
			c6,0,10.9-4.9,10.9-10.9s-4.9-10.9-10.9-10.9H445.4c-6,0-10.9,4.9-10.9,10.9S439.4,479.7,445.4,479.7z M407.4,425.3h163.2
			c6,0,10.9-4.9,10.9-10.9s-4.9-10.9-10.9-10.9H407.4c-6,0-10.9,4.9-10.9,10.9S401.4,425.3,407.4,425.3z M407.4,370.9h163.2
			c6,0,10.9-4.9,10.9-10.9s-4.9-10.9-10.9-10.9H407.4c-6,0-10.9,4.9-10.9,10.9S401.4,370.9,407.4,370.9z M407.4,316.5h163.2
			c6,0,10.9-4.9,10.9-10.9s-4.9-10.9-10.9-10.9H407.4c-6,0-10.9,4.9-10.9,10.9S401.4,316.5,407.4,316.5z M331.2,262.1h239.3
			c6,0,10.9-4.9,10.9-10.9s-4.9-10.9-10.9-10.9H331.2c-6,0-10.9,4.9-10.9,10.9C320.3,257.2,325.2,262.1,331.2,262.1z"/>
	</g>
</g>
</svg>
