<?xml version="1.0" encoding="utf-8"?>
<!-- Generator: Adobe Illustrator 28.4.1, SVG Export Plug-In . SVG Version: 6.00 Build 0)  -->
<svg version="1.1" id="Layer_1" xmlns="http://www.w3.org/2000/svg" xmlns:xlink="http://www.w3.org/1999/xlink" x="0px" y="0px"
	 viewBox="0 0 800 800" style="enable-background:new 0 0 800 800;" xml:space="preserve">
<style type="text/css">
	.st0{fill:none;stroke:#566A7F;stroke-width:30.4;stroke-linecap:round;stroke-linejoin:round;stroke-miterlimit:133.3333;}
	.st1{fill:none;stroke:#566A7F;stroke-width:32;stroke-linecap:round;stroke-miterlimit:133.3333;}
</style>
<g id="SVGRepo_bgCarrier">
</g>
<g id="SVGRepo_tracerCarrier">
</g>
<g id="SVGRepo_iconCarrier">
	<path class="st0" d="M200,383.3h33.3 M200,516.7h33.3 M566.7,516.7H600 M566.7,383.3H600 M383.3,383.3h33.3 M333.3,700V566.7
		c0-36.8,29.8-66.7,66.7-66.7s66.7,29.8,66.7,66.7V700 M566.7,250l52.5,13.1c28.9,7.2,43.3,10.8,54.1,18.9
		c9.5,7.1,16.9,16.6,21.5,27.5c5.2,12.4,5.2,27.3,5.2,57.1v226.7c0,37.3,0,56-7.3,70.3c-6.4,12.5-16.6,22.7-29.1,29.1
		c-14.3,7.3-32.9,7.3-70.3,7.3H206.7c-37.3,0-56,0-70.3-7.3c-12.5-6.4-22.7-16.6-29.1-29.1c-7.3-14.3-7.3-32.9-7.3-70.3V366.6
		c0-29.8,0-44.7,5.2-57.1c4.6-10.9,12-20.4,21.5-27.5c10.8-8.1,25.2-11.7,54.1-18.9l52.5-13.1l95.3-85.8
		c25.2-22.7,37.8-34,52.1-38.4c12.6-3.8,26-3.8,38.5,0c14.3,4.3,26.9,15.7,52.1,38.4L566.7,250z"/>
</g>
<path class="st1" d="M668.7,107H602 M600,107h-66.7 M600,107V40.3 M600,107v66.7"/>
</svg>
