<?xml version="1.0" encoding="utf-8"?>
<!-- Generator: Adobe Illustrator 28.4.1, SVG Export Plug-In . SVG Version: 6.00 Build 0)  -->
<svg version="1.1" id="Layer_1" xmlns="http://www.w3.org/2000/svg" xmlns:xlink="http://www.w3.org/1999/xlink" x="0px" y="0px"
	 viewBox="0 0 800 800" style="enable-background:new 0 0 800 800;" xml:space="preserve">
<style type="text/css">
	.st0{fill:none;stroke:#697A8D;stroke-width:32;stroke-miterlimit:133.3333;}
	.st1{fill:none;stroke:#697A8D;stroke-width:32;stroke-linecap:round;stroke-miterlimit:133.3333;}
	.st2{fill:none;stroke:#566A7F;stroke-width:32;stroke-linecap:round;stroke-miterlimit:133.3333;}
</style>
<g id="SVGRepo_bgCarrier">
</g>
<g id="SVGRepo_tracerCarrier">
</g>
<g id="SVGRepo_iconCarrier">
	<circle class="st0" cx="300" cy="200" r="133.3"/>
	<path class="st1" d="M500,300c55.2,0,100-44.8,100-100s-44.8-100-100-100"/>
	<path class="st1" d="M196.3,686.1C227.5,695,262.8,700,300,700c128.9,0,233.3-59.7,233.3-133.3c0-73.6-104.5-133.3-233.3-133.3
		c-128.9,0-233.3,59.7-233.3,133.3c0,11.5,2.6,22.7,7.4,33.3"/>
	<path class="st1" d="M600,466.7c58.5,12.8,100,45.3,100,83.3c0,34.3-33.8,64.1-83.3,79"/>
</g>
<path class="st2" d="M774.7,266.7H708 M708,266.7h-66.7 M708,266.7V200 M708,266.7v66.7"/>
</svg>
